<?xml version="1.0" standalone="no"?>
<!DOCTYPE svg PUBLIC "-//W3C//DTD SVG 20010904//EN"
 "http://www.w3.org/TR/2001/REC-SVG-20010904/DTD/svg10.dtd">
<svg version="1.0" xmlns="http://www.w3.org/2000/svg"
 width="1172.000000pt" height="526.000000pt" viewBox="0 0 1172.000000 526.000000"
 preserveAspectRatio="xMidYMid meet">

<g transform="translate(0.000000,526.000000) scale(0.100000,-0.100000)"
fill="#000000" stroke="none">
<path d="M0 4627 l0 -634 54 9 c30 4 131 11 225 16 159 6 172 6 177 -11 5 -15
15 -17 87 -12 45 3 98 8 118 10 27 4 41 0 54 -15 13 -14 31 -20 62 -20 39 0
43 -2 43 -24 0 -48 -29 -54 -320 -76 -303 -22 -415 -28 -430 -20 -8 4 -27 10
-42 14 l-28 6 0 -1020 c0 -964 1 -1020 18 -1021 14 0 14 -2 -3 -8 -19 -8 -18
-9 5 -13 24 -5 24 -5 2 -7 -22 -1 -22 -3 -21 -106 1 -90 3 -105 17 -106 10 -1
45 -2 78 -4 34 -1 68 -6 75 -11 8 -5 19 -9 24 -10 103 -16 111 -15 136 5 23
19 23 20 4 22 -21 2 12 9 130 29 71 12 117 33 150 69 16 19 29 20 129 19 61
-1 130 2 154 6 25 5 42 4 42 -2 0 -5 -14 -9 -31 -10 -47 -1 -111 -13 -133 -24
-31 -16 -5 -27 69 -28 149 -2 486 -5 615 -5 74 1 122 -2 105 -6 -19 -4 -25 -8
-15 -11 64 -23 104 -30 140 -24 32 5 41 3 38 -6 -3 -8 -25 -14 -53 -16 -26 -2
-53 -9 -60 -15 -7 -7 -47 -19 -90 -26 -45 -7 -73 -16 -66 -21 8 -4 -4 -10 -31
-14 -71 -11 -120 -28 -106 -37 8 -5 -3 -15 -35 -29 -26 -12 -52 -18 -57 -15
-5 3 -28 -4 -51 -15 -29 -15 -53 -20 -78 -17 -20 3 -28 3 -18 0 18 -5 18 -5 0
-20 -17 -14 -17 -14 5 -10 12 3 20 1 17 -3 -5 -8 33 -19 65 -18 88 0 283 -1
311 -2 20 0 76 11 124 25 48 14 98 23 112 20 19 -3 26 1 30 15 3 11 13 21 22
22 9 0 21 2 26 3 6 2 17 3 25 4 13 1 13 3 1 10 -11 7 -4 11 25 16 21 4 53 13
69 21 28 13 107 28 240 45 33 4 92 12 130 18 150 21 174 23 210 17 20 -4 44
-15 53 -24 9 -9 26 -17 37 -17 11 0 19 -5 18 -12 -2 -7 6 -10 20 -7 24 6 98 6
104 0 6 -6 -8 -35 -20 -39 -7 -2 -4 -3 6 -2 9 2 17 0 17 -3 0 -4 17 -6 37 -6
21 1 44 -1 51 -5 7 -4 38 -4 70 -1 62 7 95 3 86 -11 -15 -25 146 9 178 37 10
10 18 13 18 8 0 -5 4 -3 9 4 4 7 34 15 65 18 39 4 56 2 51 -5 -3 -6 -1 -11 4
-11 6 0 11 4 11 9 0 5 25 7 58 4 40 -3 53 -2 42 6 -8 5 -18 7 -22 5 -13 -8
-69 7 -63 16 3 5 15 6 27 1 12 -4 44 -2 77 7 63 16 184 27 141 13 -21 -8 -17
-9 25 -11 53 -2 48 -5 -28 -15 -30 -4 -45 -10 -41 -17 5 -7 34 -8 85 -4 65 5
79 4 79 -8 0 -16 -22 -27 -65 -32 -16 -2 -63 -11 -102 -19 -40 -9 -86 -17
-103 -17 -16 -1 -30 -5 -30 -10 0 -4 -7 -8 -16 -8 -9 0 -12 -5 -8 -12 5 -8 0
-9 -16 -5 -17 4 -20 3 -12 -5 7 -7 44 -15 84 -18 40 -4 66 -8 58 -9 -11 -2 -9
-5 5 -11 15 -6 6 -9 -33 -9 -40 -1 -58 -6 -70 -20 -21 -24 -59 -29 -90 -12
-13 7 -35 12 -50 11 -15 -1 -31 -1 -37 1 -11 2 -124 7 -200 8 -27 0 -70 -6
-95 -13 -25 -8 -90 -24 -145 -37 l-100 -24 101 -5 c77 -5 106 -10 118 -23 10
-9 12 -17 6 -17 -6 0 -9 -4 -6 -9 9 -13 -36 -21 -122 -22 -42 -1 -95 -4 -117
-9 -36 -7 -33 -8 30 -9 47 -1 65 -4 55 -10 -8 -6 -28 -7 -45 -5 -23 4 -26 3
-15 -5 12 -8 8 -10 -15 -7 -16 2 -39 0 -50 -5 -16 -6 -11 -8 20 -9 22 -2 46
-1 54 0 9 1 12 -4 8 -15 -4 -9 -1 -18 8 -21 25 -10 7 -22 -34 -22 -56 -1 -125
-12 -131 -22 -3 -4 -23 -11 -45 -14 -88 -14 -151 -29 -177 -42 -19 -10 -33
-12 -53 -4 -37 14 -107 12 -157 -4 -24 -8 -52 -17 -63 -20 -11 -3 10 -4 47 -3
37 2 62 0 56 -4 -14 -9 92 -23 132 -17 16 3 30 2 30 -1 0 -9 86 -27 190 -42
47 -6 88 -16 91 -21 3 -5 20 -10 37 -10 23 -1 32 -6 32 -18 0 -13 -7 -17 -24
-16 -16 1 -22 6 -18 15 4 10 1 13 -10 8 -10 -3 -19 1 -22 10 -5 12 -15 14 -49
9 -23 -4 -46 -11 -51 -16 -5 -5 -15 -6 -22 -3 -8 3 -14 0 -14 -7 0 -7 -8 -10
-20 -7 -11 3 -23 1 -26 -4 -3 -5 -11 -8 -17 -7 -7 2 -14 -2 -15 -7 -2 -6 -8
-15 -13 -22 -7 -7 -5 -13 3 -17 7 -3 4 -5 -7 -3 -11 1 -20 7 -20 14 0 6 -3 15
-7 19 -13 12 -9 24 6 18 8 -3 16 -2 19 3 3 4 -8 9 -24 10 -25 2 -28 -1 -21
-15 12 -25 8 -47 -8 -45 -40 5 -372 54 -420 63 -30 5 -91 12 -134 16 -70 6
-78 5 -73 -9 7 -19 -17 -46 -41 -48 -51 -4 -72 -7 -117 -19 -63 -15 -134 -20
-141 -9 -3 5 -11 9 -17 9 -8 0 -7 -3 2 -9 9 -6 -25 -13 -95 -22 -82 -10 -102
-15 -79 -20 28 -6 28 -7 -10 -8 -22 0 -56 -6 -75 -11 -19 -6 -73 -15 -120 -21
-47 -5 -121 -18 -165 -29 -44 -10 -102 -22 -130 -25 -74 -9 -96 -15 -91 -24 6
-9 -26 -21 -58 -21 -15 0 -16 3 -6 15 17 21 -14 32 -37 14 -14 -11 -15 -11 -9
-1 6 10 1 13 -20 12 -58 -4 -68 -1 -54 15 10 12 9 16 -5 21 -13 5 -14 9 -3 15
10 7 11 9 0 9 -8 0 -10 5 -6 13 6 9 4 9 -7 -1 -7 -6 -28 -12 -45 -12 -18 0
-36 -5 -39 -10 -3 -6 -18 -10 -33 -9 -27 0 -27 0 -4 11 26 13 29 28 5 24 -10
-2 -40 5 -68 14 l-50 18 30 8 30 8 -40 12 c-27 7 -40 17 -39 28 1 12 -6 15
-38 13 -21 -2 -41 0 -44 5 -3 4 -13 8 -23 8 -13 0 -18 -10 -20 -45 -2 -37 1
-45 15 -45 16 0 16 -2 -2 -15 -18 -14 -18 -14 4 -8 13 3 22 1 22 -6 0 -6 -10
-11 -22 -12 -22 -1 -22 -1 2 -9 24 -8 24 -8 3 -9 l-23 -1 0 -330 0 -330 3866
0 c3432 0 3865 2 3854 15 -9 11 -9 15 -1 15 7 0 9 5 6 10 -3 6 1 10 9 10 9 0
16 7 16 15 0 9 9 15 23 16 73 2 108 11 95 25 -6 6 -354 57 -461 68 -32 4 -56
3 -53 -2 5 -9 -14 -8 -86 4 -50 8 -75 -1 -56 -20 8 -7 24 -17 36 -20 26 -9 29
-32 5 -38 -10 -2 -40 1 -68 8 -49 12 -52 18 -8 15 11 -1 24 3 29 10 4 7 3 10
-4 5 -6 -3 -14 -2 -17 4 -4 6 -15 8 -25 5 -11 -4 -20 1 -24 11 -6 15 -4 15 11
3 15 -11 16 -11 6 1 -7 7 -21 15 -32 17 -34 5 -72 23 -67 31 9 16 -111 49
-209 57 -81 7 -124 16 -161 31 -17 7 -35 10 -39 6 -5 -4 -5 -2 -1 5 4 8 15 9
29 4 12 -4 30 -6 41 -3 15 3 13 7 -14 23 -18 11 -31 21 -29 23 2 2 38 -1 79
-5 123 -15 160 -16 160 -7 0 4 -8 8 -17 8 -16 0 -16 2 -3 11 12 9 12 10 -4 5
-10 -4 -24 -2 -30 3 -6 5 -14 10 -18 10 -5 1 -9 1 -10 2 -6 2 -54 10 -70 11
-9 1 -14 6 -12 10 3 4 0 8 -6 8 -6 0 -8 5 -5 10 8 12 8 12 -32 1 -20 -6 -33
-6 -35 0 -5 16 -110 40 -124 28 -12 -10 -114 -2 -124 10 -10 12 -77 31 -109
31 -25 0 -32 4 -28 14 8 21 -15 26 -36 8 -11 -10 -17 -11 -18 -4 -1 7 -2 18
-3 25 -1 6 5 17 14 24 13 10 13 13 -5 26 -10 8 -24 13 -31 10 -6 -2 -14 3 -18
13 -4 11 -2 15 8 11 10 -4 12 0 9 14 -4 15 0 19 18 20 28 0 -63 27 -101 30
-17 1 -20 3 -7 6 33 9 16 21 -40 28 l-58 8 40 18 40 18 -38 -5 c-30 -5 -36 -3
-32 8 7 17 -44 27 -149 29 -53 1 -56 3 -26 9 35 7 35 7 5 9 -23 1 -27 3 -15
11 12 8 8 10 -15 11 -29 2 -29 2 5 8 l35 7 -33 7 c-18 3 -31 12 -30 19 2 7
-12 15 -32 19 -31 6 -29 7 18 8 65 1 61 21 -4 21 -65 0 -133 19 -145 41 -6 12
-21 19 -39 19 -23 0 -30 4 -30 20 0 11 -4 20 -9 20 -5 0 -8 -8 -6 -17 2 -10 4
-21 4 -25 1 -5 9 -8 19 -9 11 -1 9 -4 -8 -9 -25 -8 -25 -8 5 -9 l30 -2 -30
-14 c-16 -7 -24 -14 -17 -14 7 -1 11 -5 8 -10 -4 -5 7 -12 24 -16 29 -6 52
-25 30 -25 -7 0 -9 -8 -5 -20 7 -23 8 -23 -35 -8 -30 10 -32 12 -14 19 19 7
19 8 -1 8 -11 1 -33 -6 -49 -14 -31 -17 -60 -20 -52 -6 7 11 -41 24 -56 15 -6
-4 -8 -3 -5 3 6 9 -15 16 -80 25 -7 1 -13 5 -13 10 0 6 -14 6 -32 2 -18 -4
-42 -8 -52 -9 -27 -2 -33 -25 -7 -25 28 0 37 -20 9 -21 -16 -1 -12 -4 12 -9
34 -7 34 -7 -12 -9 -27 0 -48 3 -48 7 0 12 -137 15 -145 2 -3 -5 -11 -8 -16
-5 -20 13 -7 -12 16 -29 13 -10 22 -22 19 -27 -3 -5 7 -9 23 -8 15 0 22 3 16
6 -21 8 -14 25 7 18 12 -4 20 -2 20 5 0 13 46 10 85 -4 12 -5 15 -5 8 1 -8 5
10 9 48 10 52 2 58 0 45 -12 -8 -8 -21 -15 -30 -15 -8 0 -18 -4 -21 -10 -3 -5
-17 -10 -30 -10 -13 0 -27 -4 -30 -10 -3 -5 -21 -10 -38 -11 -30 0 -31 -1 -9
-10 40 -16 20 -34 -42 -36 -35 -2 -55 1 -51 7 3 6 18 10 31 10 32 0 27 22 -7
30 -28 7 -109 -9 -109 -22 0 -4 6 -8 13 -9 6 0 -6 -6 -28 -13 l-40 -12 85 -5
c47 -3 94 -10 104 -16 17 -10 16 -12 -20 -29 -27 -13 -34 -20 -21 -22 9 -2 17
-7 17 -11 0 -11 -56 -22 -74 -15 -7 3 -16 -2 -19 -10 -4 -10 -17 -14 -39 -12
-18 2 -24 1 -13 -2 17 -4 14 -7 -15 -18 l-35 -12 40 -2 c127 -4 168 -9 178
-19 6 -6 23 -11 38 -11 15 0 31 -5 34 -11 4 -6 14 -8 22 -5 9 4 38 3 66 0 43
-6 47 -8 28 -16 -13 -4 -26 -6 -31 -3 -4 3 -10 -4 -13 -15 -3 -11 -11 -20 -19
-20 -10 0 -10 2 2 10 13 8 13 9 0 14 -39 12 -46 13 -61 5 -9 -5 -30 -4 -48 1
-18 5 -33 5 -36 -1 -4 -5 -14 -5 -25 1 -25 13 -30 13 -30 -4 0 -8 -5 -18 -12
-22 -6 -4 -8 -3 -5 2 3 5 -3 21 -13 34 -19 24 -19 24 -13 3 4 -16 0 -25 -12
-29 -9 -4 -20 -3 -24 2 -8 12 -101 16 -101 5 0 -5 -8 -12 -17 -14 -11 -3 -6
-5 11 -6 29 -1 29 -1 11 -21 -18 -19 -18 -22 -2 -37 11 -11 17 -13 17 -5 0 7
-5 12 -11 12 -8 0 -7 5 1 15 11 13 15 13 21 3 6 -9 9 -5 9 11 0 22 1 23 18 9
9 -9 22 -13 29 -11 6 2 14 -1 18 -7 5 -8 11 -8 21 1 10 8 14 8 14 0 0 -6 7
-11 15 -11 8 0 15 -4 15 -9 0 -4 9 -8 20 -7 11 0 19 -3 19 -8 0 -5 5 -12 12
-16 11 -8 -47 -30 -78 -30 -18 0 -16 -17 2 -24 14 -5 14 -8 0 -30 -17 -25 -77
-43 -135 -39 -15 1 -18 -1 -7 -4 18 -5 18 -6 20 -50 1 -31 -18 -40 -98 -43
-49 -2 -49 -3 35 -19 l85 -17 -120 3 c-217 6 -227 7 -299 38 -49 21 -71 26
-74 17 -2 -6 -8 -12 -13 -12 -4 0 -6 7 -3 15 4 10 0 15 -14 15 -11 0 -23 -6
-25 -12 -4 -10 -6 -10 -6 0 -1 6 -6 12 -13 12 -6 0 -9 -3 -5 -6 9 -9 -18 -33
-40 -37 -29 -4 -33 -33 -5 -40 9 -2 6 -3 -7 -2 -13 2 -35 -4 -50 -11 -14 -8
-46 -14 -71 -14 -35 0 -42 -3 -30 -11 12 -9 12 -10 -3 -5 -10 3 -28 6 -40 6
-12 1 -33 9 -45 20 -21 18 -22 21 -9 35 9 8 20 15 25 15 5 0 29 9 53 19 24 11
71 22 104 26 62 6 100 24 55 26 -14 0 -20 3 -14 5 7 3 55 -2 108 -11 99 -16
133 -18 125 -10 -3 2 -40 10 -82 16 -42 6 -77 15 -77 20 0 5 3 9 8 10 23 2 45
8 50 15 4 4 0 5 -8 2 -8 -3 -37 2 -65 10 -27 8 -75 16 -105 17 -30 2 -94 13
-143 25 -67 17 -85 25 -77 35 7 9 5 16 -7 26 -9 8 -14 9 -10 3 4 -7 -1 -14
-12 -17 -23 -6 -38 22 -19 34 7 4 9 12 4 16 -4 4 -15 -2 -23 -15 -15 -21 -51
-33 -38 -12 8 13 -2 12 -49 -4 -42 -15 -69 -12 -87 10 -8 10 -5 15 15 20 14 3
23 11 19 17 -6 10 23 6 61 -9 9 -3 16 -1 16 4 0 6 -10 13 -22 15 -16 3 -12 5
12 6 22 1 31 4 24 11 -6 6 -22 6 -43 0 -40 -11 -57 -4 -37 15 15 16 78 14 211
-4 39 -5 83 -7 99 -4 21 4 27 3 22 -5 -4 -7 -15 -13 -24 -13 -41 -3 50 -17
117 -18 65 -1 72 1 61 14 -10 12 -15 13 -20 4 -5 -7 -12 -5 -21 7 -16 22 -28
26 -85 27 -41 0 -42 1 -31 25 9 20 9 26 -1 30 -7 2 -10 8 -6 13 3 5 0 9 -5 9
-6 0 -11 -7 -11 -16 0 -14 -3 -14 -15 -4 -12 10 -13 15 -4 20 8 6 8 9 -1 15
-9 6 -9 10 1 16 11 7 11 9 2 10 -7 1 -19 2 -25 3 -7 1 -21 -2 -30 -6 -11 -5
-18 -5 -18 2 0 5 7 10 15 10 8 0 15 4 15 8 0 5 23 19 51 33 l52 24 -44 8 c-69
12 -200 16 -193 6 3 -5 -5 -9 -18 -9 -17 0 -19 3 -9 9 9 6 -7 9 -45 9 -32 -1
-51 -3 -42 -5 9 -2 15 -10 12 -18 -3 -8 -12 -11 -20 -8 -8 3 -14 0 -14 -7 0
-6 -4 -9 -9 -6 -5 3 -22 -1 -39 -10 -37 -18 -278 -31 -267 -14 3 5 -2 10 -12
10 -11 0 -28 7 -39 15 -18 13 -16 14 28 15 26 0 50 5 53 10 4 6 10 8 15 5 4
-3 13 2 20 10 10 12 8 15 -12 19 -68 14 -115 19 -239 22 -75 2 -144 6 -153 10
-16 6 -34 -1 -25 -10 7 -7 103 -17 182 -20 37 -2 73 -8 79 -14 9 -9 7 -12 -10
-12 -27 0 -29 -16 -3 -25 11 -3 22 -13 25 -21 5 -13 1 -15 -16 -11 -13 3 -44
9 -71 12 -27 4 -51 14 -57 24 -5 9 -10 11 -10 4 0 -9 -16 -11 -57 -7 -116 11
-208 30 -206 42 2 8 -9 12 -30 11 -28 0 -29 -2 -12 -10 18 -8 17 -9 -5 -5 -14
3 -63 10 -110 16 -47 6 -89 16 -94 21 -6 5 -35 9 -65 9 -40 0 -52 3 -41 10 8
5 11 10 5 10 -5 0 -3 4 5 9 8 6 28 8 45 5 24 -3 26 -3 10 5 -18 8 -18 9 9 16
22 6 32 4 42 -10 13 -17 40 -12 29 6 -4 5 -3 9 2 9 4 0 48 7 97 16 87 15 143
13 131 -6 -9 -14 15 -23 29 -11 8 7 18 11 22 10 5 -1 11 -1 14 1 27 10 50 8
50 -4 0 -15 28 -15 50 -1 6 4 16 2 23 -3 7 -5 30 -10 52 -10 85 -2 390 -46
365 -53 -18 -5 -10 -7 29 -8 43 -1 52 -4 47 -16 -7 -19 1 -19 20 0 13 12 10
15 -22 21 -65 12 -14 23 66 14 47 -5 82 -4 93 2 10 5 21 7 24 4 9 -9 37 26 41
51 2 21 0 23 -28 18 -17 -3 -36 -2 -43 2 -12 8 26 17 125 29 27 4 45 11 42 16
-4 6 13 8 45 4 41 -4 52 -2 60 12 6 10 11 12 11 4 0 -9 12 -10 43 -6 23 4 44
8 46 10 11 10 -37 33 -59 29 -18 -3 -32 4 -53 27 -26 28 -35 31 -75 29 -28 -1
-48 3 -53 10 -6 11 -13 10 -32 0 -17 -9 -38 -11 -68 -5 -43 8 -43 8 -14 15 17
3 24 7 17 8 -7 0 -10 6 -7 11 3 6 17 7 30 4 12 -3 51 1 85 10 34 9 73 16 86
16 14 0 36 11 48 25 13 14 44 32 67 39 l44 14 -40 1 c-84 3 -76 31 9 31 23 0
50 6 61 14 34 22 71 26 152 16 43 -6 94 -13 113 -15 l35 -4 -40 19 c-22 10
-51 19 -65 19 -18 1 -21 4 -12 10 8 4 14 12 14 17 1 21 248 83 334 84 27 0 54
4 60 10 9 9 93 -6 104 -19 3 -4 28 -7 55 -7 28 0 59 -4 69 -9 16 -7 18 -5 13
8 -3 9 -1 19 5 23 7 4 8 3 4 -4 -8 -14 -11 -13 76 -17 37 -2 70 0 72 4 3 4 -7
7 -21 6 -14 0 -28 6 -31 14 -4 11 4 13 39 7 52 -7 345 -35 444 -41 64 -4 66
-4 20 4 -27 5 -81 12 -120 16 -50 5 -64 10 -50 15 17 7 15 9 -15 16 l-35 8 50
7 c28 4 91 8 142 8 74 1 91 4 87 15 -3 8 -26 21 -52 31 -26 9 -67 26 -92 38
l-45 21 30 4 c43 5 56 22 18 22 -18 0 -35 4 -38 10 -3 6 1 7 10 4 10 -4 15 -2
13 7 -2 10 13 15 57 17 33 2 82 5 109 6 27 2 63 -2 80 -9 17 -7 70 -13 119
-14 48 -1 99 -6 113 -11 14 -6 51 -9 82 -9 l57 2 -60 13 -60 13 65 -6 c36 -3
70 -9 76 -14 7 -6 40 -9 75 -8 150 3 587 -23 608 -35 11 -7 224 -21 311 -21
72 1 189 31 197 52 4 9 13 6 34 -11 16 -14 54 -30 86 -36 31 -7 64 -16 72 -20
32 -17 57 -24 91 -25 147 -5 176 -9 193 -24 18 -15 18 -16 0 -22 -14 -6 -12
-8 10 -8 22 -1 50 -21 116 -85 77 -74 104 -92 227 -154 124 -62 140 -73 142
-97 1 -14 36 -91 77 -170 41 -79 68 -142 60 -139 -29 11 -39 -8 -14 -27 l24
-18 -40 5 c-27 3 -34 2 -20 -4 16 -7 12 -10 -20 -14 -22 -3 -56 -13 -75 -21
l-35 -15 55 -2 c37 -1 49 -4 35 -9 -19 -8 -19 -8 4 -20 30 -16 14 -34 -28 -33
-17 0 -33 -4 -37 -9 -3 -5 -9 -7 -14 -4 -5 3 -11 1 -15 -4 -3 -6 17 -18 45
-28 34 -12 50 -23 50 -35 0 -10 5 -19 10 -19 6 -1 15 -3 20 -4 6 -1 36 -3 68
-4 l57 -2 -39 -15 c-21 -7 -43 -11 -50 -7 -6 4 0 -7 14 -24 25 -31 66 -43 146
-43 40 0 45 -16 10 -30 -26 -10 -45 -49 -28 -59 6 -3 42 -6 81 -6 47 0 71 -4
71 -12 0 -6 -4 -13 -10 -15 -5 -2 -3 -16 5 -33 8 -16 27 -61 43 -100 l29 -70
1446 -3 1447 -2 0 2630 0 2630 -1593 0 -1594 0 1 -87 1 -88 -37 -3 -38 -3 0
90 c0 84 -1 91 -20 91 -15 0 -20 -7 -21 -27 -1 -16 -1 -32 0 -37 5 -28 -25
-80 -59 -102 -21 -14 -41 -32 -44 -40 -3 -8 -4 -14 -3 -14 1 0 24 7 51 15 95
29 164 13 131 -31 -8 -10 -15 -27 -15 -36 0 -10 -4 -18 -8 -18 -5 0 -17 -9
-29 -19 -13 -13 -39 -20 -77 -22 l-56 -4 -1 55 c0 40 -3 50 -9 35 -18 -43 -11
-93 18 -127 16 -18 37 -48 47 -65 30 -52 23 -55 -165 -77 -30 -4 -71 -11 -90
-17 -19 -5 -69 -10 -110 -12 -42 -2 -80 -6 -85 -9 -10 -6 -344 -36 -400 -36
-16 0 -70 -5 -120 -11 -178 -21 -306 -25 -316 -10 -5 8 -9 148 -9 312 0 257
-2 297 -15 297 -13 0 -15 -42 -15 -317 l0 -318 -37 0 c-21 0 -87 -4 -148 -9
-60 -4 -144 -7 -185 -6 -72 2 -121 1 -165 -4 -11 -1 -27 3 -35 10 -8 6 -28 14
-44 18 -21 5 -27 11 -23 26 3 10 0 21 -7 24 -6 2 7 5 29 6 22 1 51 3 65 5 55
9 300 35 383 41 48 4 90 11 93 16 3 4 0 8 -6 8 -6 0 -10 8 -9 18 5 54 -2 111
-13 107 -18 -7 -22 -96 -6 -107 17 -11 -7 -27 -42 -28 -14 -1 -110 -9 -215
-19 -106 -10 -197 -14 -205 -10 -10 5 -11 8 -2 9 17 0 15 18 -3 36 -13 13 -15
52 -14 232 1 205 2 218 22 240 l20 22 -28 0 c-20 0 -42 -12 -69 -37 -23 -21
-31 -26 -18 -12 26 30 28 44 6 35 -8 -3 -13 -2 -9 3 3 6 -153 10 -382 10 -382
1 -388 0 -365 -18 20 -18 31 -61 15 -61 -4 0 -33 18 -64 40 -38 27 -68 40 -89
40 -29 0 -31 -2 -19 -16 8 -9 30 -27 49 -40 19 -13 51 -35 70 -48 19 -14 43
-25 53 -25 19 -1 21 -9 8 -29 -7 -11 -9 -11 -14 1 -4 10 -13 13 -27 10 -15 -4
-31 3 -53 25 -18 17 -57 43 -87 57 -30 14 -62 30 -70 34 -27 15 -75 28 -88 23
-10 -3 -9 -9 4 -23 24 -27 5 -24 -38 6 l-37 25 -804 0 -803 0 4 -122 c3 -91 9
-133 22 -160 l18 -38 -26 0 c-15 0 -43 -5 -62 -10 -19 -6 -52 -11 -72 -12 -21
-1 -38 -5 -38 -9 0 -3 -21 -10 -47 -14 -93 -15 -25 -15 98 -1 68 8 127 12 131
10 5 -3 14 -2 21 3 6 4 19 8 27 9 101 12 216 25 260 29 147 13 182 17 268 31
52 9 95 14 97 12 2 -2 -195 -52 -438 -112 -396 -98 -465 -112 -667 -137 -124
-15 -249 -32 -279 -38 -57 -12 -382 -51 -409 -50 -10 0 -5 6 13 14 17 9 217
36 470 65 242 28 445 53 450 55 28 10 -69 1 -451 -45 -230 -27 -419 -48 -422
-46 -6 6 110 29 136 28 13 -1 21 2 18 7 -3 5 13 7 37 6 23 -1 31 0 17 3 -18 3
-3 10 55 23 44 10 88 16 99 13 10 -4 16 -2 13 3 -3 4 13 7 36 6 31 -2 37 -1
22 6 -17 7 -13 9 21 15 l42 7 7 97 c5 68 12 103 23 116 15 18 15 19 1 14 -13
-5 -18 6 -28 62 -6 38 -11 89 -11 114 l0 46 -1545 0 -1545 0 0 -633z m6413
343 c4 -208 -1 -276 -16 -236 -4 10 -7 64 -7 120 0 109 12 358 16 341 1 -6 4
-107 7 -225z m-80 206 c3 -8 -2 -21 -12 -30 -15 -14 -18 -14 -18 -1 0 8 4 12
8 9 4 -2 10 0 14 6 3 5 -1 10 -9 10 -9 0 -16 5 -16 10 0 15 27 12 33 -4z m4
-128 c8 -14 6 -240 -3 -270 -3 -11 -15 -18 -30 -18 -14 0 -23 4 -20 9 4 5 1
11 -5 13 -12 4 -13 47 -5 170 5 78 40 131 63 96z m2344 -73 c1 -44 5 -85 10
-91 5 -5 10 -62 12 -125 2 -87 4 -67 7 86 l4 200 6 -120 c4 -66 8 -179 9 -251
1 -136 -4 -153 -43 -155 -12 0 -15 -3 -8 -6 6 -2 12 -13 12 -23 0 -25 17 -35
24 -13 2 10 4 -6 3 -35 0 -29 4 -56 10 -60 15 -10 35 -1893 20 -1908 -2 -3
-23 -2 -45 2 -35 5 -43 11 -55 43 -14 35 -25 126 -32 266 -1 39 -13 129 -25
200 -20 117 -36 247 -44 345 -1 19 -4 127 -6 240 l-4 205 -7 -245 c-4 -135
-10 -270 -13 -300 -24 -260 -29 -306 -32 -309 -2 -2 -4 9 -4 26 0 30 -21 59
-33 47 -3 -3 -13 11 -21 31 -13 30 -20 36 -37 32 -12 -3 -18 -3 -15 1 4 3 -7
11 -24 18 -36 15 -80 1 -80 -25 0 -13 -2 -13 -9 -2 -5 8 -27 14 -49 15 -32 1
-42 -3 -46 -17 -4 -16 -10 -18 -38 -12 -37 8 -68 31 -68 52 0 7 -7 16 -15 19
-8 4 -12 10 -10 15 3 5 -10 15 -29 23 -33 14 -96 71 -96 87 0 5 -6 6 -14 3 -8
-3 -17 0 -22 7 -5 8 -3 10 7 5 8 -4 -6 10 -30 32 -38 35 -47 39 -69 31 -32
-12 -82 4 -116 38 -14 14 -27 21 -27 14 -1 -6 -3 -15 -4 -21 -1 -5 -3 -16 -4
-22 -1 -7 -9 -2 -17 12 -22 34 -87 64 -125 56 -24 -4 -29 -2 -29 14 0 30 -16
32 -62 10 -53 -26 -65 -25 -79 2 -8 14 -14 18 -17 10 -5 -17 -27 -15 -42 3 -7
8 -23 15 -35 15 -20 0 -23 4 -20 30 2 17 1 30 -4 30 -4 0 -8 6 -9 13 -1 6 -8
41 -15 77 l-15 65 -1 -53 c-1 -67 -16 -99 -38 -81 -8 7 -47 14 -86 15 -64 2
-69 1 -48 -10 15 -9 20 -16 12 -20 -6 -4 -19 0 -28 9 -9 9 -24 14 -34 12 -11
-3 -19 -1 -19 3 0 17 -108 5 -130 -15 -16 -14 -23 -16 -32 -7 -17 17 -28 15
-28 -5 0 -11 -3 -14 -8 -7 -7 11 -92 43 -124 48 -26 3 -34 16 -18 26 13 8 12
10 -2 10 -10 0 -18 7 -18 15 0 8 -6 15 -13 15 -8 0 -24 9 -37 20 -25 22 -45
27 -34 9 4 -7 1 -10 -7 -7 -8 3 -13 11 -11 17 1 6 -2 11 -7 11 -5 0 -12 12
-15 26 -7 25 -8 25 -26 9 -17 -16 -19 -15 -31 6 -7 13 -19 30 -26 38 -11 10
-12 16 -2 21 13 9 4 30 -14 30 -17 0 -39 -37 -27 -45 16 -10 11 -22 -12 -30
-33 -11 -68 -12 -62 -3 7 11 -21 38 -40 38 -12 0 -14 7 -9 30 4 23 2 30 -10
30 -9 0 -20 6 -24 13 -4 6 -20 18 -36 26 -17 9 -23 17 -16 22 17 10 -30 39
-63 39 -16 0 -28 5 -28 11 0 5 6 7 13 3 6 -4 3 2 -7 14 -16 18 -18 31 -12 78
4 35 2 61 -4 69 -12 14 1 27 31 32 38 6 345 34 464 43 159 11 591 40 660 44
28 1 95 8 150 14 55 6 138 13 185 16 162 10 525 36 569 42 43 6 43 6 20 22
-26 18 -48 18 -334 -3 -110 -9 -324 -21 -475 -29 -197 -10 -286 -18 -315 -29
-28 -11 -99 -18 -245 -24 -197 -7 -540 -5 -549 3 -3 2 1 10 9 17 10 9 11 9 6
0 -4 -7 -2 -13 4 -13 7 0 14 9 17 20 3 11 13 20 23 20 28 0 81 25 73 35 -5 4
0 5 10 2 11 -4 17 -1 17 8 0 9 10 15 23 16 35 1 75 9 100 19 16 7 8 9 -33 5
-69 -6 -481 -34 -573 -39 -37 -2 -71 -6 -74 -10 -4 -3 -2 -6 4 -6 6 0 13 -9
16 -20 6 -24 4 -24 -48 0 -27 13 -34 19 -20 19 16 1 17 3 5 11 -13 8 -13 10 0
14 22 8 557 52 728 61 48 2 204 13 347 24 439 34 786 60 1115 81 173 11 351
25 395 30 44 6 147 13 229 17 l149 6 -8 266 c-4 146 -4 264 -2 261 3 -3 7 -41
8 -85z m-3636 -76 c14 -21 -4 -20 -44 3 -54 31 -56 56 -2 28 22 -11 43 -25 46
-31z m3480 1 c6 -10 15 -74 16 -130 1 -19 9 -43 17 -52 17 -20 3 -25 -16 -6
-9 10 -16 8 -29 -5 -17 -17 -15 -19 27 -57 39 -34 42 -39 23 -40 -13 0 -23 -5
-23 -10 0 -15 -47 -31 -120 -40 -36 -5 -103 -14 -150 -20 -47 -6 -116 -14
-155 -16 -38 -3 -99 -8 -135 -12 -62 -8 -66 -7 -95 19 l-30 28 -105 -10 c-85
-8 -109 -14 -128 -31 -12 -12 -21 -27 -18 -33 3 -8 -15 -12 -51 -13 -30 -1
-146 -8 -257 -17 -110 -8 -208 -14 -216 -12 -8 1 -49 -2 -90 -6 -41 -4 -158
-14 -259 -22 l-184 -15 -26 27 c-14 15 -20 23 -12 18 10 -6 12 -4 6 4 -5 9
-18 11 -39 6 -17 -4 -67 -8 -111 -10 -44 -2 -81 -9 -83 -14 -5 -16 -22 -13
-22 3 0 15 21 26 49 26 10 0 31 6 47 14 16 8 53 17 81 21 29 4 55 11 58 16 3
4 12 6 20 2 8 -3 15 -1 15 5 0 5 42 14 93 20 50 7 126 16 167 22 149 19 354
40 404 40 28 0 69 5 91 9 22 5 85 12 139 15 55 4 109 9 120 11 36 8 412 44
641 61 l220 16 35 35 c25 25 29 34 15 29 -16 -6 -18 -5 -7 5 6 7 12 26 12 41
0 56 45 110 65 78z m1648 -23 c9 -25 -7 -39 -28 -24 -10 8 -15 19 -11 25 10
16 33 15 39 -1z m-5666 -29 c-3 -8 -6 -5 -6 6 -1 11 2 17 5 13 3 -3 4 -12 1
-19z m352 -93 c1 -58 5 -116 8 -128 10 -37 14 -1043 5 -1027 -5 8 -12 215 -16
460 -3 245 -9 528 -13 629 -4 118 -3 182 3 178 6 -3 11 -54 13 -112z m-422 28
c4 -16 7 -43 7 -60 0 -18 4 -33 8 -33 4 0 8 -9 8 -20 0 -11 -4 -20 -10 -20 -5
0 -10 9 -10 20 0 11 -4 20 -9 20 -5 0 -12 17 -16 38 -3 20 -9 47 -12 60 -4 16
-1 22 11 22 9 0 19 -12 23 -27z m-99 -50 c7 -34 10 -40 11 -20 1 30 15 36 25
11 10 -27 7 -44 -9 -44 -8 0 -15 -7 -15 -15 0 -40 -34 -1 -48 57 -15 60 -15
58 7 58 14 0 21 -11 29 -47z m-127 10 c0 -5 2 -18 5 -30 2 -15 -1 -23 -10 -23
-14 0 -26 21 -26 46 0 14 29 20 31 7z m676 -25 c-3 -8 -6 -5 -6 6 -1 11 2 17
5 13 3 -3 4 -12 1 -19z m-1588 -2 c-10 -11 -854 -216 -866 -212 -9 4 -11 1 -7
-6 5 -8 -3 -9 -27 -5 -19 4 -28 3 -21 -1 16 -11 -93 -37 -109 -26 -8 5 -9 3
-4 -6 6 -10 1 -12 -26 -7 -20 4 -29 3 -21 -2 18 -11 -35 -22 -69 -15 -17 4
-20 3 -11 -4 18 -12 -381 -112 -423 -106 -25 4 -27 3 -10 -6 16 -8 14 -9 -12
-4 -17 3 -48 1 -69 -5 -21 -6 -33 -7 -28 -2 10 9 107 36 189 53 69 14 70 20 2
12 -39 -5 -57 -3 -57 4 0 15 21 19 160 33 117 11 211 26 175 28 -11 0 -78 -6
-150 -14 -148 -17 -195 -18 -195 -7 0 5 120 21 268 36 244 26 361 42 322 45
-9 1 -139 -12 -290 -29 -300 -33 -310 -34 -310 -22 0 4 161 25 358 46 196 21
377 42 402 46 109 18 -25 7 -405 -35 -226 -25 -419 -45 -430 -44 -38 1 38 18
113 25 48 5 69 10 60 16 -8 5 -3 6 14 2 14 -3 221 16 460 42 238 27 426 50
417 52 -9 2 -182 -15 -384 -38 -202 -23 -375 -39 -384 -38 -18 4 217 38 264
38 20 0 25 3 17 9 -7 4 12 6 45 5 44 -3 52 -1 33 6 -19 6 -12 7 25 4 28 -3 77
0 110 5 l60 10 -80 -4 c-52 -3 -71 -1 -55 4 14 5 42 9 63 10 20 1 37 6 37 12
0 8 14 9 43 5 32 -5 38 -4 27 5 -11 8 0 9 45 5 45 -5 56 -3 45 5 -11 8 0 9 45
5 43 -3 54 -2 40 5 -14 7 -1 8 45 5 45 -3 59 -2 45 5 -15 7 -8 8 27 6 27 -1
49 2 51 7 1 4 46 9 99 10 54 0 90 4 80 9 -10 4 4 6 31 3 26 -2 47 0 47 5 0 4
19 10 43 12 67 6 141 7 136 3z m971 -16 c0 -5 -4 -10 -10 -10 -5 0 -10 5 -10
10 0 6 5 10 10 10 6 0 10 -4 10 -10z m647 -52 c-2 -13 -4 -3 -4 22 0 25 2 35
4 23 2 -13 2 -33 0 -45z m-827 32 c9 -16 8 -20 -5 -20 -8 0 -15 9 -15 20 0 11
2 20 5 20 2 0 9 -9 15 -20z m447 -2 c-3 -8 -6 -5 -6 6 -1 11 2 17 5 13 3 -3 4
-12 1 -19z m-548 -54 c6 -31 8 -61 5 -66 -4 -6 -1 -14 6 -18 8 -5 10 -15 5
-26 -8 -17 -9 -17 -13 4 -2 13 -10 26 -18 29 -8 3 -14 16 -14 28 0 13 -5 36
-10 51 -7 19 -7 30 1 40 19 23 26 16 38 -42z m50 19 c6 -16 13 -41 15 -56 4
-23 2 -28 -11 -23 -9 4 -20 2 -23 -5 -4 -6 -10 9 -14 33 -11 71 11 104 33 51z
m325 -22 c-4 -16 -1 -32 5 -35 6 -4 9 -12 5 -17 -3 -6 -2 -18 2 -27 4 -9 9
-26 10 -37 2 -11 12 -67 24 -125 20 -106 30 -164 35 -210 1 -14 4 -25 5 -25 1
0 4 -11 6 -25 6 -49 11 -85 14 -95 5 -20 0 -36 -10 -30 -6 4 -8 11 -4 16 3 6
2 18 -2 27 -4 9 -9 26 -10 37 -2 11 -26 139 -53 284 -37 194 -47 268 -39 278
16 19 18 16 12 -16z m102 -18 c-11 -11 -19 6 -11 24 8 17 8 17 12 0 3 -10 2
-21 -1 -24z m-849 -45 c-3 -8 -6 -5 -6 6 -1 11 2 17 5 13 3 -3 4 -12 1 -19z
m863 0 c0 -16 -3 -19 -11 -11 -6 6 -8 16 -5 22 11 17 16 13 16 -11z m-3895
-43 c164 -33 211 -45 174 -45 -8 0 -84 -9 -169 -20 -189 -24 -262 -26 -254 -6
3 8 1 17 -5 21 -16 10 -13 25 5 25 13 0 15 7 10 34 -7 34 -6 35 26 31 18 -2
114 -20 213 -40z m3042 -7 c-3 -8 -6 -5 -6 6 -1 11 2 17 5 13 3 -3 4 -12 1
-19z m883 -98 c1 -3 2 -8 1 -12 0 -4 6 -40 14 -80 8 -40 17 -84 20 -98 2 -14
6 -38 9 -55 3 -16 8 -52 11 -79 3 -27 10 -67 16 -90 13 -51 19 -83 23 -116 2
-14 4 -29 6 -35 1 -5 2 -18 1 -28 -1 -23 -20 -13 -20 11 0 9 -5 39 -10 66 -6
28 -13 68 -16 90 -2 23 -7 52 -10 66 -28 141 -42 226 -38 237 3 7 1 19 -5 26
-12 15 -23 82 -27 162 l-3 60 13 -60 c7 -33 14 -62 15 -65z m407 -217 c-1 -65
-3 -14 -3 112 0 127 2 180 3 118 2 -62 2 -165 0 -230z m349 212 c165 -69 313
-132 331 -140 l32 -14 3 -234 c4 -271 4 -273 89 -297 l54 -16 3 -93 c2 -73 0
-92 -10 -89 -7 3 -186 38 -398 77 -212 40 -395 77 -407 82 l-23 9 0 420 c0
351 2 420 14 420 7 0 148 -56 312 -125z m-3363 108 c-7 -2 -21 -2 -30 0 -10 3
-4 5 12 5 17 0 24 -2 18 -5z m2117 -38 c0 -8 -4 -15 -10 -15 -5 0 -10 7 -10
15 0 8 5 15 10 15 6 0 10 -7 10 -15z m247 -7 c-3 -8 -6 -5 -6 6 -1 11 2 17 5
13 3 -3 4 -12 1 -19z m3430 16 c-3 -3 -12 -4 -19 -1 -8 3 -5 6 6 6 11 1 17 -2
13 -5z m-4413 -20 c11 -27 7 -40 -14 -41 -24 -2 -38 36 -19 48 20 12 26 11 33
-7z m746 -40 c0 -8 -4 -12 -10 -9 -5 3 -10 10 -10 16 0 5 5 9 10 9 6 0 10 -7
10 -16z m272 -80 c4 -4 5 -17 2 -29 -3 -13 -1 -26 5 -29 5 -4 8 -13 5 -21 -3
-8 -2 -20 3 -27 7 -12 11 -31 14 -78 0 -8 3 -22 6 -30 7 -19 13 -58 13 -87 0
-12 5 -25 10 -28 5 -3 7 -12 3 -20 -3 -9 0 -21 6 -29 6 -7 9 -21 5 -30 -8 -22
-23 -11 -17 13 3 10 0 22 -5 25 -6 3 -8 15 -5 25 3 10 0 22 -6 25 -6 4 -8 18
-5 31 3 12 1 26 -5 29 -5 4 -8 13 -4 21 3 9 0 21 -6 29 -6 7 -9 21 -5 30 3 9
1 23 -6 31 -7 8 -10 21 -7 30 4 8 2 17 -4 21 -5 3 -7 14 -4 24 3 10 1 21 -4
25 -6 3 -11 16 -11 28 0 42 -5 75 -12 82 -4 4 -4 14 0 23 4 12 10 2 17 -30 5
-25 13 -50 17 -54z m-145 64 c-3 -8 -6 -5 -6 6 -1 11 2 17 5 13 3 -3 4 -12 1
-19z m-3637 -17 c0 -5 -4 -21 -9 -34 -10 -27 -24 -31 -126 -42 -72 -8 -67 -1
30 49 69 36 105 45 105 27z m3137 -23 c-3 -8 -6 -5 -6 6 -1 11 2 17 5 13 3 -3
4 -12 1 -19z m380 0 c-3 -8 -6 -5 -6 6 -1 11 2 17 5 13 3 -3 4 -12 1 -19z
m130 -10 c-3 -8 -6 -5 -6 6 -1 11 2 17 5 13 3 -3 4 -12 1 -19z m-1206 -45 c19
-77 18 -78 -13 -79 -17 -1 -28 4 -28 12 0 8 4 14 10 14 6 0 7 22 4 55 -8 73 9
71 27 -2z m68 26 c29 -32 32 -57 8 -74 -25 -17 -47 -20 -47 -4 0 5 5 7 12 3 6
-4 5 2 -4 14 -15 22 -13 82 3 82 4 0 17 -9 28 -21z m881 11 c0 -5 -5 -10 -11
-10 -5 0 -7 5 -4 10 3 6 8 10 11 10 2 0 4 -4 4 -10z m136 -37 c-10 -10 -19 5
-10 18 6 11 8 11 12 0 2 -7 1 -15 -2 -18z m143 -51 c0 -13 -3 -21 -8 -18 -5 3
-7 15 -4 25 3 10 0 22 -5 25 -6 3 -7 16 -4 29 6 20 7 20 13 -8 4 -16 7 -40 8
-53z m-2512 42 c-3 -3 -12 -4 -19 -1 -8 3 -5 6 6 6 11 1 17 -2 13 -5z m2243
-4 c0 -5 -5 -10 -11 -10 -5 0 -7 5 -4 10 3 6 8 10 11 10 2 0 4 -4 4 -10z
m-2380 -10 c-13 -8 -12 -10 4 -10 11 0 17 -2 14 -5 -3 -4 -18 -3 -33 1 -20 5
-23 9 -13 15 7 5 20 9 28 9 13 0 13 -1 0 -10z m97 4 c-3 -3 -12 -4 -19 -1 -8
3 -5 6 6 6 11 1 17 -2 13 -5z m2453 -177 c0 -10 -4 -16 -10 -12 -5 3 -7 12 -3
20 3 9 0 22 -7 30 -6 8 -9 19 -5 25 4 6 1 17 -5 25 -6 8 -9 19 -5 25 4 6 2 17
-4 24 -6 7 -8 22 -4 32 5 13 13 -7 25 -66 9 -47 17 -93 18 -103z m-2605 163
c-3 -5 -12 -10 -18 -10 -7 0 -6 4 3 10 19 12 23 12 15 0z m112 4 c-3 -3 -12
-4 -19 -1 -8 3 -5 6 6 6 11 1 17 -2 13 -5z m-80 -20 c-3 -3 -12 -4 -19 -1 -8
3 -5 6 6 6 11 1 17 -2 13 -5z m2424 -34 c5 0 7 -11 3 -25 -3 -14 -2 -25 4 -25
5 0 7 -11 4 -25 -2 -14 0 -25 4 -25 5 0 10 -20 11 -45 1 -24 5 -50 9 -56 11
-19 16 -101 5 -95 -5 3 -7 15 -4 25 3 10 0 22 -5 25 -6 3 -8 15 -5 25 3 10 0
22 -5 25 -6 3 -8 15 -5 25 3 10 0 22 -6 25 -5 4 -8 13 -4 21 3 9 0 21 -6 29
-6 7 -9 20 -5 29 3 8 1 18 -4 21 -6 3 -8 15 -5 25 3 10 0 22 -6 25 -5 4 -7 14
-3 24 6 14 7 14 10 -5 2 -13 8 -23 13 -23z m1872 20 c-3 -11 -9 -20 -14 -20
-4 0 -7 9 -6 20 1 11 7 20 13 20 7 0 10 -8 7 -20z m-4448 0 c-3 -5 -12 -10
-18 -10 -7 0 -6 4 3 10 19 12 23 12 15 0z m112 4 c-3 -3 -12 -4 -19 -1 -8 3
-5 6 6 6 11 1 17 -2 13 -5z m-152 -14 c-3 -5 -12 -10 -18 -10 -7 0 -6 4 3 10
19 12 23 12 15 0z m112 4 c-3 -3 -12 -4 -19 -1 -8 3 -5 6 6 6 11 1 17 -2 13
-5z m1091 -20 c7 -14 8 -23 2 -19 -15 9 -32 45 -22 45 5 0 14 -12 20 -26z
m-1131 10 c-3 -3 -12 -4 -19 -1 -8 3 -5 6 6 6 11 1 17 -2 13 -5z m2800 -36
c-3 -7 -5 -2 -5 12 0 14 2 19 5 13 2 -7 2 -19 0 -25z m-3022 3 c-29 -11 -90
-22 -82 -15 7 7 64 22 87 22 9 1 7 -3 -5 -7z m1153 -26 c-12 -26 -17 -29 -42
-19 -23 9 -20 23 7 34 40 16 48 13 35 -15z m222 11 c0 -9 -30 -14 -35 -6 -4 6
3 10 14 10 12 0 21 -2 21 -4z m1657 -38 c-3 -7 -5 -2 -5 12 0 14 2 19 5 13 2
-7 2 -19 0 -25z m-1654 8 c6 -16 -19 -30 -28 -16 -7 11 2 30 15 30 4 0 10 -6
13 -14z m-1466 -2 c-3 -3 -12 -4 -19 -1 -8 3 -5 6 6 6 11 1 17 -2 13 -5z
m2720 -26 c-3 -8 -6 -5 -6 6 -1 11 2 17 5 13 3 -3 4 -12 1 -19z m413 -24 c0
-14 -4 -23 -9 -20 -5 3 -7 15 -4 26 7 28 13 25 13 -6z m-2111 -3 c12 -21 5
-32 -14 -25 -7 3 -15 -6 -20 -23 l-7 -28 -13 25 c-18 31 -19 57 -2 63 25 11
47 6 56 -12z m1708 -13 c-3 -8 -6 -5 -6 6 -1 11 2 17 5 13 3 -3 4 -12 1 -19z
m-1868 -48 c0 -9 -4 -8 -9 5 -5 11 -9 27 -9 35 0 9 4 8 9 -5 5 -11 9 -27 9
-35z m2151 29 c0 -11 -4 -18 -10 -14 -5 3 -7 12 -3 20 7 21 13 19 13 -6z
m-713 -21 c-3 -7 -5 -2 -5 12 0 14 2 19 5 13 2 -7 2 -19 0 -25z m443 2 c0 -11
-4 -20 -9 -20 -5 0 -7 9 -4 20 3 11 7 20 9 20 2 0 4 -9 4 -20z m400 -1 c0 -11
-4 -18 -10 -14 -5 3 -7 12 -3 20 7 21 13 19 13 -6z m-120 -30 c0 -11 -4 -18
-10 -14 -5 3 -7 12 -3 20 7 21 13 19 13 -6z m-713 -11 c-3 -8 -6 -5 -6 6 -1
11 2 17 5 13 3 -3 4 -12 1 -19z m-1398 -143 c-1 -5 -12 24 -25 65 -13 41 -23
80 -23 85 1 6 12 -24 25 -65 13 -41 23 -79 23 -85z m1841 135 c0 -11 -4 -20
-9 -20 -5 0 -7 9 -4 20 3 11 7 20 9 20 2 0 4 -9 4 -20z m396 -17 c-11 -11 -17
4 -9 23 7 18 8 18 11 1 2 -10 1 -21 -2 -24z m-823 -4 c-3 -12 -1 -24 4 -28 6
-3 7 -15 3 -26 -6 -16 -8 -13 -14 18 -4 20 -4 42 -1 47 10 16 13 11 8 -11z
m717 4 c0 -14 -19 -38 -25 -32 -8 8 5 39 16 39 5 0 9 -3 9 -7z m-893 -25 c-3
-8 -6 -5 -6 6 -1 11 2 17 5 13 3 -3 4 -12 1 -19z m1247 -11 c-9 -24 -23 -11
-17 14 3 12 9 17 15 11 5 -5 6 -16 2 -25z m-637 -9 c-3 -7 -5 -2 -5 12 0 14 2
19 5 13 2 -7 2 -19 0 -25z m403 6 c0 -14 -4 -23 -9 -20 -5 3 -7 15 -4 26 7 28
13 25 13 -6z m-1193 -6 c-3 -8 -6 -5 -6 6 -1 11 2 17 5 13 3 -3 4 -12 1 -19z
m190 -30 c-3 -7 -5 -2 -5 12 0 14 2 19 5 13 2 -7 2 -19 0 -25z m886 7 c-5 -13
-23 -22 -23 -11 0 15 14 35 21 31 4 -3 6 -12 2 -20z m-2653 -73 c7 -29 19 -46
35 -54 13 -6 22 -14 19 -19 -2 -4 4 -12 13 -18 24 -14 7 -14 -18 0 -11 5 -17
14 -14 20 4 5 -1 9 -10 9 -10 0 -14 -5 -9 -12 4 -7 -1 -5 -11 4 -16 15 -54
115 -55 141 0 23 40 -34 50 -71z m1598 23 c0 -16 -2 -15 -8 5 -11 34 -11 60 0
35 5 -11 8 -29 8 -40z m779 23 c-3 -7 -5 -2 -5 12 0 14 2 19 5 13 2 -7 2 -19
0 -25z m143 11 c0 -11 -4 -18 -10 -14 -5 3 -7 12 -3 20 7 21 13 19 13 -6z
m494 -4 c-4 -8 -10 -13 -15 -10 -4 3 -6 12 -3 20 4 8 10 13 15 10 4 -3 6 -12
3 -20z m-1061 -6 c-3 -12 -1 -24 4 -28 6 -3 7 -15 3 -26 -6 -16 -8 -13 -14 18
-4 20 -4 42 -1 47 10 16 13 11 8 -11z m824 -11 c-3 -7 -5 -2 -5 12 0 14 2 19
5 13 2 -7 2 -19 0 -25z m131 -48 c0 -22 -1 -22 -8 5 -4 17 -8 41 -8 55 0 22 1
22 8 -5 4 -16 8 -41 8 -55z m-1131 38 c-3 -8 -6 -5 -6 6 -1 11 2 17 5 13 3 -3
4 -12 1 -19z m883 -4 c0 -14 -4 -23 -9 -20 -5 3 -7 15 -4 26 7 28 13 25 13 -6z
m-1263 -6 c-3 -8 -6 -5 -6 6 -1 11 2 17 5 13 3 -3 4 -12 1 -19z m996 -8 c-3
-11 -7 -20 -9 -20 -2 0 -4 9 -4 20 0 11 4 20 9 20 5 0 7 -9 4 -20z m134 -12
c-3 -7 -5 -2 -5 12 0 14 2 19 5 13 2 -7 2 -19 0 -25z m490 -5 c-3 -10 -5 -4
-5 12 0 17 2 24 5 18 2 -7 2 -21 0 -30z m-230 -5 c-3 -7 -5 -2 -5 12 0 14 2
19 5 13 2 -7 2 -19 0 -25z m-1000 0 c-3 -8 -6 -5 -6 6 -1 11 2 17 5 13 3 -3 4
-12 1 -19z m-346 -83 c4 3 4 -6 1 -21 -3 -17 -1 -25 5 -21 6 4 8 -4 5 -20 -3
-16 -1 -24 5 -20 6 4 8 -4 5 -20 -4 -19 -2 -24 8 -18 9 5 11 4 6 -4 -9 -14 3
-73 13 -66 5 2 6 -7 3 -22 -4 -19 -2 -24 8 -18 9 5 11 4 6 -4 -9 -15 3 -93 13
-86 5 2 6 -7 3 -22 -3 -16 -1 -24 5 -20 6 4 8 -4 5 -20 -3 -16 -1 -24 5 -20 6
4 8 -4 5 -21 -4 -18 -27 58 -74 243 -68 269 -81 327 -50 227 10 -30 20 -51 23
-47z m166 73 c-3 -8 -6 -5 -6 6 -1 11 2 17 5 13 3 -3 4 -12 1 -19z m1060 -20
c-3 -7 -5 -2 -5 12 0 14 2 19 5 13 2 -7 2 -19 0 -25z m-2130 0 c-3 -8 -6 -5
-6 6 -1 11 2 17 5 13 3 -3 4 -12 1 -19z m1881 -93 c0 -11 -6 3 -13 30 -7 28
-13 59 -13 70 0 11 6 -2 13 -30 7 -27 13 -59 13 -70z m125 95 c-3 -11 -7 -20
-9 -20 -2 0 -4 9 -4 20 0 11 4 20 9 20 5 0 7 -9 4 -20z m-563 -30 c4 0 5 -10
2 -22 -6 -23 -6 -23 -13 2 -4 14 -7 34 -7 45 1 17 1 16 5 -2 2 -13 8 -23 13
-23z m817 8 c-3 -7 -5 -2 -5 12 0 14 2 19 5 13 2 -7 2 -19 0 -25z m230 0 c-3
-7 -5 -2 -5 12 0 14 2 19 5 13 2 -7 2 -19 0 -25z m-1410 0 c-3 -8 -6 -5 -6 6
-1 11 2 17 5 13 3 -3 4 -12 1 -19z m180 0 c-3 -8 -6 -5 -6 6 -1 11 2 17 5 13
3 -3 4 -12 1 -19z m1126 -3 c-7 -21 -13 -19 -13 6 0 11 4 18 10 14 5 -3 7 -12
3 -20z m-4376 -307 c-1 -62 -3 -14 -3 107 0 121 2 172 3 113 2 -59 2 -158 0
-220z m133 288 c13 -22 27 -34 38 -32 9 2 44 0 77 -5 49 -6 63 -5 78 8 25 24
41 4 33 -41 -4 -20 -10 -37 -14 -37 -4 -1 -36 -3 -72 -5 -36 -1 -65 -3 -65 -4
0 -9 -47 -6 -57 4 -8 7 -24 16 -35 20 -25 8 -38 52 -28 96 9 39 19 38 45 -4z
m4480 -109 c0 -10 -5 -15 -11 -12 -6 4 -8 14 -5 22 4 9 1 22 -5 29 -6 8 -8 21
-5 30 4 9 2 22 -4 29 -6 7 -7 21 -3 31 5 14 11 1 20 -46 7 -36 12 -73 13 -83z
m-477 113 c-3 -11 -7 -20 -9 -20 -2 0 -4 9 -4 20 0 11 4 20 9 20 5 0 7 -9 4
-20z m-136 -22 c-3 -7 -5 -2 -5 12 0 14 2 19 5 13 2 -7 2 -19 0 -25z m-2427
12 c13 -9 13 -10 0 -10 -13 0 -13 -1 0 -10 8 -5 11 -10 5 -10 -5 0 -17 5 -25
10 -13 9 -13 10 0 10 13 0 13 1 0 10 -8 5 -10 10 -5 10 6 0 17 -5 25 -10z
m1531 -65 c4 3 4 -6 1 -21 -3 -17 -1 -25 5 -21 6 4 8 -3 5 -18 -2 -14 0 -25 5
-25 6 0 8 -12 5 -26 -3 -17 -1 -25 5 -21 6 4 8 -4 5 -20 -3 -16 -1 -24 5 -20
6 4 8 -4 5 -21 -4 -20 -14 9 -38 108 -31 126 -46 217 -20 122 6 -24 14 -41 17
-37z m-2586 47 c29 -8 29 -9 8 -16 -13 -4 -23 -12 -23 -17 0 -6 5 -7 12 -3 20
12 88 22 94 13 2 -5 28 -20 56 -34 29 -14 58 -35 66 -46 7 -10 21 -19 30 -19
9 0 28 -16 41 -35 13 -19 28 -33 35 -32 6 1 10 -6 8 -15 -2 -11 3 -18 13 -18
19 0 20 -16 0 -24 -34 -13 -4 -86 35 -86 24 0 46 -29 59 -77 9 -32 18 -44 36
-49 l23 -6 -5 -341 c-3 -188 -10 -351 -15 -362 -6 -14 -7 -7 -3 21 5 44 -11
64 -34 41 -10 -9 -12 -9 -9 3 2 8 -4 15 -12 15 -9 0 -15 -9 -14 -22 0 -13 -2
-23 -6 -23 -6 0 -12 13 -112 290 -39 107 -74 199 -78 204 -9 9 30 -119 75
-251 15 -42 29 -89 32 -103 2 -13 8 -29 12 -35 5 -5 11 -21 14 -35 2 -14 12
-46 20 -72 12 -39 12 -46 1 -41 -9 3 -14 -2 -14 -16 0 -12 -7 -24 -15 -27 -8
-4 -13 -9 -11 -13 3 -4 -9 -14 -25 -24 -17 -9 -27 -12 -24 -7 10 17 -33 5 -55
-15 -20 -18 -21 -18 -35 1 -8 10 -17 27 -21 38 -4 12 -9 15 -13 7 -4 -6 -26
69 -49 167 -264 1125 -247 1040 -224 1065 17 19 63 19 127 -1z m3742 -14 c-3
-7 -5 -2 -5 12 0 14 2 19 5 13 2 -7 2 -19 0 -25z m230 0 c-3 -7 -5 -2 -5 12 0
14 2 19 5 13 2 -7 2 -19 0 -25z m-2744 -35 c69 -28 112 -50 105 -54 -6 -4 -41
4 -77 18 -36 14 -79 30 -96 36 -16 5 -33 14 -36 19 -3 6 -9 9 -13 9 -3 -1 -14
-1 -23 0 -13 0 -14 2 -4 6 11 5 11 7 0 15 -20 14 5 5 144 -49z m2634 25 c-3
-7 -5 -2 -5 12 0 14 2 19 5 13 2 -7 2 -19 0 -25z m-234 2 c-3 -11 -7 -20 -9
-20 -2 0 -4 9 -4 20 0 11 4 20 9 20 5 0 7 -9 4 -20z m-693 -30 c4 0 5 -10 2
-22 -6 -23 -6 -23 -13 2 -4 14 -7 34 -7 45 1 17 1 16 5 -2 2 -13 8 -23 13 -23z
m557 8 c-3 -7 -5 -2 -5 12 0 14 2 19 5 13 2 -7 2 -19 0 -25z m260 -20 c-3 -7
-5 -2 -5 12 0 14 2 19 5 13 2 -7 2 -19 0 -25z m-2022 -104 c20 -65 34 -122 32
-127 -1 -5 -18 44 -37 110 -18 65 -36 125 -38 133 -3 8 -2 12 2 9 3 -3 22 -60
41 -125z m2142 94 c-3 -7 -5 -2 -5 12 0 14 2 19 5 13 2 -7 2 -19 0 -25z m110
0 c-3 -7 -5 -2 -5 12 0 14 2 19 5 13 2 -7 2 -19 0 -25z m-1793 -48 c4 -24 3
-29 -3 -15 -4 11 -11 36 -15 55 -4 24 -3 29 3 15 4 -11 11 -36 15 -55z m1443
38 c-3 -7 -5 -2 -5 12 0 14 2 19 5 13 2 -7 2 -19 0 -25z m-870 0 c-3 -8 -6 -5
-6 6 -1 11 2 17 5 13 3 -3 4 -12 1 -19z m600 0 c-3 -8 -6 -5 -6 6 -1 11 2 17
5 13 3 -3 4 -12 1 -19z m140 -10 c-3 -7 -5 -2 -5 12 0 14 2 19 5 13 2 -7 2
-19 0 -25z m-1980 -10 c-3 -8 -6 -5 -6 6 -1 11 2 17 5 13 3 -3 4 -12 1 -19z
m2240 -10 c-3 -7 -5 -2 -5 12 0 14 2 19 5 13 2 -7 2 -19 0 -25z m233 1 c0 -11
-4 -18 -10 -14 -5 3 -7 12 -3 20 7 21 13 19 13 -6z m-1223 -11 c-3 -8 -6 -5
-6 6 -1 11 2 17 5 13 3 -3 4 -12 1 -19z m183 -18 c4 0 5 -10 2 -22 -6 -23 -6
-23 -13 2 -4 14 -7 34 -7 45 1 17 1 16 5 -2 2 -13 8 -23 13 -23z m423 20 c-3
-11 -7 -20 -9 -20 -2 0 -4 9 -4 20 0 11 4 20 9 20 5 0 7 -9 4 -20z m264 -12
c-3 -7 -5 -2 -5 12 0 14 2 19 5 13 2 -7 2 -19 0 -25z m240 0 c-3 -7 -5 -2 -5
12 0 14 2 19 5 13 2 -7 2 -19 0 -25z m-4267 -8 c31 0 38 -11 35 -55 -1 -16 -3
-187 -3 -379 -1 -192 -4 -347 -6 -345 -2 2 -6 39 -8 81 -3 54 -9 83 -21 96 -9
10 -14 22 -10 25 3 4 1 7 -5 7 -7 0 -12 -30 -15 -82 -1 -46 -3 90 -4 302 0
212 1 377 4 368 3 -12 14 -18 33 -18z m3897 -2 c-3 -7 -5 -2 -5 12 0 14 2 19
5 13 2 -7 2 -19 0 -25z m590 0 c-3 -7 -5 -2 -5 12 0 14 2 19 5 13 2 -7 2 -19
0 -25z m-4233 -40 c14 -55 76 -381 91 -478 l5 -35 -14 30 c-9 17 -15 26 -16
21 0 -5 -6 -3 -14 3 -8 7 -16 8 -19 4 -3 -5 1 -60 9 -123 8 -63 16 -140 19
-170 5 -53 4 -54 -6 -15 -5 22 -25 128 -44 235 -19 107 -48 272 -65 365 -32
183 -36 220 -20 210 5 -3 18 -1 27 4 28 16 30 14 47 -51z m1563 40 c-3 -8 -6
-5 -6 6 -1 11 2 17 5 13 3 -3 4 -12 1 -19z m-1747 2 c0 -5 16 -10 35 -10 28 0
36 -4 40 -22 3 -13 19 -153 35 -312 17 -160 35 -319 40 -355 9 -68 7 -94 -5
-43 -5 23 -10 29 -26 25 -23 -6 -26 19 -4 37 8 7 15 26 15 42 0 25 -3 29 -20
25 -11 -3 -21 -1 -21 4 -1 5 -2 17 -3 27 -1 9 -9 28 -19 42 -16 24 -17 19 -17
-153 0 -97 -4 -177 -8 -177 -4 0 -18 159 -31 353 -12 193 -25 391 -28 440 -4
62 -3 87 6 87 6 0 11 -4 11 -10z m4093 -20 c-7 -28 -13 -25 -13 6 0 14 4 23 9
20 5 -3 7 -15 4 -26z m-996 -12 c-3 -7 -5 -2 -5 12 0 14 2 19 5 13 2 -7 2 -19
0 -25z m600 -10 c-3 -7 -5 -2 -5 12 0 14 2 19 5 13 2 -7 2 -19 0 -25z m510 0
c-3 -7 -5 -2 -5 12 0 14 2 19 5 13 2 -7 2 -19 0 -25z m113 11 c0 -11 -4 -18
-10 -14 -5 3 -7 12 -3 20 7 21 13 19 13 -6z m780 -43 c190 -30 369 -58 398
-62 l52 -7 0 -210 0 -210 -317 7 c-175 3 -364 9 -420 12 l-103 7 0 257 c0 141
3 260 7 263 4 4 14 5 22 2 9 -3 171 -29 361 -59z m-2566 -16 c4 -24 3 -29 -3
-15 -4 11 -11 36 -15 55 -4 24 -3 29 3 15 4 -11 11 -36 15 -55z m1303 38 c-3
-7 -5 -2 -5 12 0 14 2 19 5 13 2 -7 2 -19 0 -25z m130 10 c-3 -8 -6 -5 -6 6
-1 11 2 17 5 13 3 -3 4 -12 1 -19z m-2100 -20 c-3 -8 -6 -5 -6 6 -1 11 2 17 5
13 3 -3 4 -12 1 -19z m430 -10 c-3 -8 -6 -5 -6 6 -1 11 2 17 5 13 3 -3 4 -12
1 -19z m810 0 c-3 -8 -6 -5 -6 6 -1 11 2 17 5 13 3 -3 4 -12 1 -19z m170 -10
c-3 -7 -5 -2 -5 12 0 14 2 19 5 13 2 -7 2 -19 0 -25z m820 0 c-3 -7 -5 -2 -5
12 0 14 2 19 5 13 2 -7 2 -19 0 -25z m-390 -10 c-3 -7 -5 -2 -5 12 0 14 2 19
5 13 2 -7 2 -19 0 -25z m140 -10 c-3 -7 -5 -2 -5 12 0 14 2 19 5 13 2 -7 2
-19 0 -25z m130 0 c-3 -7 -5 -2 -5 12 0 14 2 19 5 13 2 -7 2 -19 0 -25z m240
10 c-3 -8 -6 -5 -6 6 -1 11 2 17 5 13 3 -3 4 -12 1 -19z m-1100 -20 c-3 -8 -6
-5 -6 6 -1 11 2 17 5 13 3 -3 4 -12 1 -19z m170 -10 c-3 -8 -6 -5 -6 6 -1 11
2 17 5 13 3 -3 4 -12 1 -19z m820 -10 c-3 -7 -5 -2 -5 12 0 14 2 19 5 13 2 -7
2 -19 0 -25z m-390 -10 c-3 -7 -5 -2 -5 12 0 14 2 19 5 13 2 -7 2 -19 0 -25z
m140 -10 c-3 -7 -5 -2 -5 12 0 14 2 19 5 13 2 -7 2 -19 0 -25z m130 0 c-3 -7
-5 -2 -5 12 0 14 2 19 5 13 2 -7 2 -19 0 -25z m-1406 -73 c4 3 4 -6 1 -21 -3
-19 -1 -25 6 -20 8 4 10 2 6 -7 -3 -8 0 -34 6 -57 6 -23 9 -44 7 -46 -4 -4
-68 228 -66 242 1 5 8 -15 17 -44 10 -30 20 -51 23 -47z m379 65 c3 -3 3 -16
-1 -30 -6 -20 -7 -21 -8 -5 -1 11 -4 31 -6 45 -3 14 -2 18 1 10 4 -8 10 -17
14 -20z m167 -2 c-3 -8 -6 -5 -6 6 -1 11 2 17 5 13 3 -3 4 -12 1 -19z m170
-10 c-3 -8 -6 -5 -6 6 -1 11 2 17 5 13 3 -3 4 -12 1 -19z m430 -20 c-3 -7 -5
-2 -5 12 0 14 2 19 5 13 2 -7 2 -19 0 -25z m390 10 c-3 -8 -6 -5 -6 6 -1 11 2
17 5 13 3 -3 4 -12 1 -19z m211 -6 c14 -22 14 -22 -42 -22 -31 0 -56 2 -56 4
0 8 65 46 74 43 5 -2 16 -13 24 -25z m-2181 -185 c24 -87 43 -160 41 -163 -4
-3 -96 306 -105 351 -9 49 21 -41 64 -188z m1720 171 c-3 -7 -5 -2 -5 12 0 14
2 19 5 13 2 -7 2 -19 0 -25z m130 0 c-3 -7 -5 -2 -5 12 0 14 2 19 5 13 2 -7 2
-19 0 -25z m-860 0 c-3 -8 -6 -5 -6 6 -1 11 2 17 5 13 3 -3 4 -12 1 -19z
m-800 -10 c-3 -8 -6 -5 -6 6 -1 11 2 17 5 13 3 -3 4 -12 1 -19z m970 0 c-3 -8
-6 -5 -6 6 -1 11 2 17 5 13 3 -3 4 -12 1 -19z m-328 -33 c5 2 6 -7 3 -20 -2
-14 0 -25 6 -25 6 0 8 -9 5 -20 -3 -11 -1 -20 5 -20 6 0 8 -10 4 -22 -4 -17
-10 -6 -24 47 -9 39 -17 75 -17 80 1 6 3 2 6 -8 2 -9 8 -15 12 -12z m758 3
c-3 -8 -6 -5 -6 6 -1 11 2 17 5 13 3 -3 4 -12 1 -19z m140 -10 c-3 -7 -5 -2
-5 12 0 14 2 19 5 13 2 -7 2 -19 0 -25z m130 0 c-3 -7 -5 -2 -5 12 0 14 2 19
5 13 2 -7 2 -19 0 -25z m-690 -10 c-3 -8 -6 -5 -6 6 -1 11 2 17 5 13 3 -3 4
-12 1 -19z m-960 -20 c-3 -8 -6 -5 -6 6 -1 11 2 17 5 13 3 -3 4 -12 1 -19z
m1390 -10 c-3 -7 -5 -2 -5 12 0 14 2 19 5 13 2 -7 2 -19 0 -25z m140 -10 c-3
-7 -5 -2 -5 12 0 14 2 19 5 13 2 -7 2 -19 0 -25z m-1520 -20 c-3 -8 -6 -5 -6
6 -1 11 2 17 5 13 3 -3 4 -12 1 -19z m430 0 c-3 -8 -6 -5 -6 6 -1 11 2 17 5
13 3 -3 4 -12 1 -19z m-850 -10 c-3 -8 -6 -5 -6 6 -1 11 2 17 5 13 3 -3 4 -12
1 -19z m1810 0 c-3 -8 -6 -5 -6 6 -1 11 2 17 5 13 3 -3 4 -12 1 -19z m-950
-30 c-3 -8 -6 -5 -6 6 -1 11 2 17 5 13 3 -3 4 -12 1 -19z m370 -20 c-3 -8 -6
-5 -6 6 -1 11 2 17 5 13 3 -3 4 -12 1 -19z m590 0 c-3 -8 -6 -5 -6 6 -1 11 2
17 5 13 3 -3 4 -12 1 -19z m-1380 -10 c-3 -8 -6 -5 -6 6 -1 11 2 17 5 13 3 -3
4 -12 1 -19z m625 -4 c-3 -15 -1 -25 4 -22 5 3 10 -15 10 -41 l2 -46 -15 54
c-8 30 -12 60 -9 67 9 23 14 16 8 -12z m-3215 -46 c-2 -13 -4 -3 -4 22 0 25 2
35 4 23 2 -13 2 -33 0 -45z m3020 40 c-3 -8 -6 -5 -6 6 -1 11 2 17 5 13 3 -3
4 -12 1 -19z m-200 -10 c-3 -8 -6 -5 -6 6 -1 11 2 17 5 13 3 -3 4 -12 1 -19z
m-640 -20 c-3 -8 -6 -5 -6 6 -1 11 2 17 5 13 3 -3 4 -12 1 -19z m874 -63 c4 3
4 -6 1 -21 -3 -17 -1 -25 5 -21 6 4 8 -4 5 -21 -5 -22 -9 -15 -24 43 -9 39
-17 77 -17 85 1 8 6 -4 13 -28 6 -24 14 -41 17 -37z m-224 43 c-3 -8 -6 -5 -6
6 -1 11 2 17 5 13 3 -3 4 -12 1 -19z m-220 -10 c-3 -8 -6 -5 -6 6 -1 11 2 17
5 13 3 -3 4 -12 1 -19z m790 0 c-3 -8 -6 -5 -6 6 -1 11 2 17 5 13 3 -3 4 -12
1 -19z m-548 -33 c5 2 6 -8 3 -23 l-6 -27 -7 25 c-4 14 -7 32 -7 40 0 10 2 9
5 -3 2 -9 8 -15 12 -12z m-220 -35 c0 -9 -4 -8 -9 5 -5 11 -9 27 -9 35 0 9 4
8 9 -5 5 -11 9 -27 9 -35z m778 18 c-3 -7 -5 -2 -5 12 0 14 2 19 5 13 2 -7 2
-19 0 -25z m-164 -8 c-3 -12 -8 -19 -11 -16 -5 6 5 36 12 36 2 0 2 -9 -1 -20z
m-1036 -12 c-3 -8 -6 -5 -6 6 -1 11 2 17 5 13 3 -3 4 -12 1 -19z m1216 -8 c-3
-12 -8 -19 -11 -16 -5 6 5 36 12 36 2 0 2 -9 -1 -20z m-171 -27 c-3 -16 -7
-22 -10 -15 -4 13 4 42 11 42 2 0 2 -12 -1 -27z m-819 -63 c4 8 4 5 2 -7 -8
-32 5 -79 17 -61 6 9 7 6 3 -9 -3 -12 1 -47 10 -78 9 -31 15 -58 13 -61 -4 -4
-77 239 -85 281 -2 11 5 -2 15 -30 13 -33 21 -45 25 -35z m204 58 c-3 -8 -6
-5 -6 6 -1 11 2 17 5 13 3 -3 4 -12 1 -19z m220 0 c-3 -8 -6 -5 -6 6 -1 11 2
17 5 13 3 -3 4 -12 1 -19z m570 -30 c-3 -7 -5 -2 -5 12 0 14 2 19 5 13 2 -7 2
-19 0 -25z m-560 -10 c-3 -8 -6 -5 -6 6 -1 11 2 17 5 13 3 -3 4 -12 1 -19z
m200 0 c-3 -8 -6 -5 -6 6 -1 11 2 17 5 13 3 -3 4 -12 1 -19z m190 -10 c-3 -8
-6 -5 -6 6 -1 11 2 17 5 13 3 -3 4 -12 1 -19z m-380 -30 c-3 -8 -6 -5 -6 6 -1
11 2 17 5 13 3 -3 4 -12 1 -19z m390 -10 c-3 -8 -6 -5 -6 6 -1 11 2 17 5 13 3
-3 4 -12 1 -19z m-380 -30 c-3 -8 -6 -5 -6 6 -1 11 2 17 5 13 3 -3 4 -12 1
-19z m-210 -20 c-3 -8 -6 -5 -6 6 -1 11 2 17 5 13 3 -3 4 -12 1 -19z m10 -40
c-3 -8 -6 -5 -6 6 -1 11 2 17 5 13 3 -3 4 -12 1 -19z m600 0 c-3 -8 -6 -5 -6
6 -1 11 2 17 5 13 3 -3 4 -12 1 -19z m309 -105 c-3 -71 -11 -129 -16 -131 -6
-2 -10 -13 -10 -24 0 -16 5 -19 23 -15 12 3 72 7 132 8 l110 2 3 -92 3 -91
-30 -6 c-33 -7 -51 -34 -23 -34 9 0 105 -5 212 -10 670 -32 759 -32 848 -5 16
5 22 3 22 -7 0 -12 25 -16 122 -21 66 -4 153 -7 191 -7 100 0 80 -7 -43 -14
-58 -4 -150 -11 -205 -18 -109 -12 -426 -5 -485 11 -31 8 -32 9 -10 12 49 5
-198 16 -387 18 -131 1 -215 -4 -268 -14 -42 -8 -110 -17 -152 -21 l-75 -7 3
284 c2 156 8 290 12 297 5 6 13 12 19 12 7 0 8 -41 4 -127z m-489 75 c-3 -8
-6 -5 -6 6 -1 11 2 17 5 13 3 -3 4 -12 1 -19z m-410 -10 c-3 -8 -6 -5 -6 6 -1
11 2 17 5 13 3 -3 4 -12 1 -19z m420 -30 c-3 -8 -6 -5 -6 6 -1 11 2 17 5 13 3
-3 4 -12 1 -19z m-410 -10 c-3 -8 -6 -5 -6 6 -1 11 2 17 5 13 3 -3 4 -12 1
-19z m5132 -28 c38 -32 37 -53 -3 -71 -27 -13 -61 -7 -91 14 -19 14 -18 16 10
50 17 20 35 36 40 36 6 0 25 -13 44 -29z m-4712 -2 c-3 -8 -6 -5 -6 6 -1 11 2
17 5 13 3 -3 4 -12 1 -19z m-410 -10 c-3 -8 -6 -5 -6 6 -1 11 2 17 5 13 3 -3
4 -12 1 -19z m-198 -99 c17 -59 31 -113 30 -120 0 -14 -68 208 -69 225 0 23
10 -6 39 -105z m220 31 c0 -9 -4 -8 -9 5 -5 11 -9 27 -9 35 0 9 4 8 9 -5 5
-11 9 -27 9 -35z m8 -42 c-3 -8 -6 -5 -6 6 -1 11 2 17 5 13 3 -3 4 -12 1 -19z
m5099 3 c17 -10 45 -22 62 -26 25 -5 36 -16 52 -52 29 -65 24 -77 -8 -18 -22
41 -33 51 -65 58 -34 8 -147 2 -147 -9 0 -2 16 -26 35 -53 19 -26 35 -53 35
-58 0 -5 -13 -22 -29 -37 -26 -25 -34 -27 -70 -21 -42 7 -59 19 -42 30 6 3 8
12 4 20 -3 8 0 15 7 15 7 0 10 7 7 15 -4 8 -2 17 4 21 6 3 8 12 5 20 -3 8 -1
14 5 14 6 0 8 9 4 20 -5 15 4 25 47 49 29 17 55 31 58 31 3 0 19 -9 36 -19z
m-2309 -113 c-3 -8 -6 -5 -6 6 -1 11 2 17 5 13 3 -3 4 -12 1 -19z m74 -14 c8
3 24 -8 37 -25 20 -24 21 -29 7 -29 -9 0 -14 4 -11 9 3 5 -6 12 -20 15 -26 7
-54 28 -54 42 0 3 6 1 14 -5 7 -6 20 -9 27 -7z m127 -10 c2 -28 -12 -25 -28 7
-9 15 -7 19 7 19 13 0 19 -8 21 -26z m-3181 -16 c-3 -8 -6 -5 -6 6 -1 11 2 17
5 13 3 -3 4 -12 1 -19z m-1570 -25 c-3 -10 -5 -4 -5 12 0 17 2 24 5 18 2 -7 2
-21 0 -30z m7195 1 c15 -9 33 -8 81 7 50 15 68 16 104 8 23 -6 40 -15 38 -20
-3 -4 -13 -5 -21 -2 -13 5 -15 1 -10 -14 4 -14 -25 -97 -89 -253 -52 -128 -93
-236 -90 -240 3 -5 38 -26 79 -49 l73 -40 5 -123 c3 -68 4 -125 2 -127 -2 -3
-20 3 -39 12 -21 10 -37 12 -40 7 -6 -10 17 -22 60 -33 15 -3 13 -5 -9 -6 -15
0 -55 -8 -87 -16 -59 -15 -79 -14 -79 6 0 6 5 7 12 3 7 -4 8 -3 4 5 -4 6 -11
9 -16 6 -4 -3 -11 2 -14 11 -4 12 -2 15 9 10 8 -3 22 -9 30 -12 8 -3 15 -1 15
6 0 6 -4 9 -9 6 -4 -3 -17 1 -27 9 -28 22 -3 33 54 24 26 -4 48 -6 49 -5 1 1
-59 34 -133 73 -74 39 -131 66 -127 60 5 -7 26 -33 46 -59 21 -26 34 -48 30
-51 -5 -2 -29 -5 -54 -6 l-46 -2 -58 92 c-32 51 -71 106 -86 123 -30 35 -159
241 -159 255 0 15 79 145 96 158 11 8 14 19 9 35 -5 18 -2 16 15 -9 19 -28
100 -70 112 -57 2 2 4 -35 4 -81 -1 -47 1 -85 4 -85 3 0 16 32 30 71 l24 70
-27 52 c-34 67 -50 110 -37 102 14 -9 261 58 257 70 -2 5 -10 10 -18 10 -14 0
-29 14 -29 28 0 4 10 2 21 -5 12 -7 30 -18 41 -24z m-7432 16 c0 -5 -5 -10
-11 -10 -5 0 -7 5 -4 10 3 6 8 10 11 10 2 0 4 -4 4 -10z m4167 -72 c-2 -13 -4
-3 -4 22 0 25 2 35 4 23 2 -13 2 -33 0 -45z m3752 -24 c303 -97 431 -143 406
-144 -12 0 -16 -3 -9 -8 13 -8 15 -44 2 -36 -4 3 -8 1 -8 -3 0 -12 -148 2
-270 25 -195 38 -209 39 -219 29 -13 -13 -40 10 -122 106 -56 65 -58 68 -42
87 10 11 19 20 21 20 3 0 111 -34 241 -76z m-2922 52 c-2 -6 -23 -10 -48 -9
l-44 2 43 -10 c94 -22 21 -39 -169 -39 -66 0 -119 -4 -119 -8 0 -4 -16 -6 -36
-4 -28 3 -35 1 -29 -8 6 -10 -2 -12 -36 -6 -65 10 -67 22 -7 30 29 4 57 11 63
15 5 4 56 14 113 21 56 7 104 16 107 20 7 12 166 8 162 -4z m2033 -68 c0 -19
-2 -20 -10 -8 -13 19 -13 30 0 30 6 0 10 -10 10 -22z m-6792 -145 l-2 -138 -3
118 c-4 113 -4 117 -26 118 l-22 2 23 4 c12 2 22 11 22 19 0 8 2 14 5 14 3 0
4 -62 3 -137z m8295 100 c-18 -2 -48 -2 -65 0 -18 2 -4 4 32 4 36 0 50 -2 33
-4z m-78 -33 c4 -6 1 -18 -6 -26 -14 -17 -31 0 -22 23 6 16 19 17 28 3z
m-6648 -192 c-2 -35 -3 -7 -3 62 0 69 1 97 3 63 2 -35 2 -91 0 -125z m6590
167 c0 -8 -4 -12 -9 -9 -5 3 -6 10 -3 15 9 13 12 11 12 -6z m-7167 -41 c4 -16
3 -40 -1 -54 l-6 -25 -10 25 c-6 14 -14 39 -17 57 -6 27 -5 31 11 29 10 -2 20
-14 23 -32z m7747 -16 c-3 -8 -6 -5 -6 6 -1 11 2 17 5 13 3 -3 4 -12 1 -19z
m358 -304 c30 -164 52 -300 50 -303 -3 -2 -11 2 -20 9 -13 11 -14 10 -9 -4 3
-9 11 -16 18 -16 6 0 45 -33 86 -73 41 -39 108 -103 149 -141 64 -60 70 -67
45 -63 -16 3 -49 9 -74 13 -44 6 -109 22 -180 43 -46 15 -63 14 -54 -1 7 -11
-49 33 -176 140 l-34 29 99 23 c55 12 103 25 107 29 16 14 -41 73 -157 163
l-120 94 -80 -7 c-44 -5 -92 -12 -106 -16 l-27 -8 44 -75 c24 -41 53 -82 64
-90 11 -9 25 -31 30 -51 7 -24 19 -39 37 -47 16 -6 19 -9 8 -7 -16 4 -21 0
-21 -15 0 -11 1 -20 2 -20 1 0 21 7 44 15 23 8 45 15 48 15 2 0 2 -48 -1 -107
-5 -110 -22 -192 -56 -266 -10 -23 -21 -51 -23 -62 -2 -11 -7 7 -11 41 l-8 61
-66 -15 -67 -15 -22 28 c-12 16 -37 57 -54 92 -17 36 -48 83 -69 106 -46 51
-81 111 -81 138 0 16 4 18 16 11 37 -21 52 -3 59 66 9 92 16 103 11 16 -6
-100 4 -106 44 -23 l35 71 35 -6 c19 -3 45 -9 58 -12 21 -6 19 1 -26 77 -28
46 -48 87 -46 90 2 3 38 9 81 13 43 4 94 9 113 12 32 5 44 -2 144 -80 60 -47
111 -86 113 -86 5 0 -32 65 -99 174 -27 44 -54 89 -60 100 -32 63 28 -25 106
-156 85 -142 120 -188 132 -176 3 4 -17 132 -45 286 -47 257 -57 326 -45 296
3 -6 29 -146 59 -310z m-5790 296 c-28 -12 -45 -12 -45 0 0 6 15 10 33 9 27 0
29 -2 12 -9z m4946 -13 c-10 -9 -11 -8 -5 6 3 10 9 15 12 12 3 -3 0 -11 -7
-18z m-4998 -3 c64 -3 119 -10 122 -14 3 -5 -52 -8 -122 -6 -71 2 -112 0 -93
-4 29 -6 31 -8 9 -9 -15 0 -42 -3 -60 -6 -28 -4 -30 -4 -14 5 15 8 4 9 -45 6
-36 -2 -74 0 -85 4 -17 7 -17 9 -2 9 9 1 17 5 17 11 0 5 6 7 13 5 6 -3 32 -1
57 4 25 4 54 7 65 5 11 -2 73 -6 138 -10z m114 10 c-3 -3 -12 -4 -19 -1 -8 3
-5 6 6 6 11 1 17 -2 13 -5z m61 -1 c-10 -2 -26 -2 -35 0 -10 3 -2 5 17 5 19 0
27 -2 18 -5z m3996 -69 c3 -8 2 -12 -4 -9 -6 3 -10 10 -10 16 0 14 7 11 14 -7z
m-4399 -4 c-3 -5 -11 -10 -16 -10 -6 0 -7 5 -4 10 3 6 11 10 16 10 6 0 7 -4 4
-10z m680 -20 c35 -16 37 -18 15 -19 -14 -1 -38 6 -54 14 -15 8 -40 15 -55 16
-23 0 -24 1 -6 9 23 10 43 5 100 -20z m3803 -5 c-3 -3 -9 2 -12 12 -6 14 -5
15 5 6 7 -7 10 -15 7 -18z m-3813 -45 c-3 -5 -23 -10 -43 -9 -30 0 -33 2 -17
9 28 12 67 12 60 0z m363 -7 c-15 -2 -42 -2 -60 0 -18 2 -6 4 27 4 33 0 48 -2
33 -4z m449 1 c-3 -3 -12 -4 -19 -1 -8 3 -5 6 6 6 11 1 17 -2 13 -5z m-4887
-34 c146 -11 289 -21 317 -22 36 -2 53 -7 53 -16 0 -7 -4 -11 -8 -8 -4 3 -75
10 -158 16 -82 6 -165 12 -184 15 -19 2 -109 9 -200 15 -91 7 -176 16 -190 21
-17 6 -4 7 40 4 36 -3 184 -14 330 -25z m8006 -52 c-3 -19 -2 -27 2 -20 7 10
39 6 158 -22 195 -46 267 -65 279 -77 7 -7 1 -8 -17 -5 -16 2 -28 0 -28 -5 0
-16 45 -54 89 -75 23 -10 41 -24 41 -31 0 -6 2 -18 5 -25 4 -9 -8 -20 -30 -31
l-37 -17 29 -34 c51 -62 57 -51 49 84 l-7 120 26 0 c33 0 41 -3 36 -15 -2 -5
-5 -28 -8 -50 -2 -22 -6 -64 -10 -93 -6 -52 7 -96 32 -114 5 -4 -3 -8 -18 -8
l-28 0 27 -37 26 -38 -33 38 -32 39 -19 -24 c-10 -12 -44 -57 -75 -98 -93
-125 -80 -123 -165 -21 -45 55 -79 86 -88 84 -8 -2 -82 8 -165 22 -169 30
-245 40 -245 32 0 -5 116 -34 295 -72 152 -33 155 -34 134 -45 -10 -6 -36 -4
-70 5 -116 30 -192 46 -197 40 -3 -3 1 -5 9 -5 8 0 33 -13 55 -29 22 -16 61
-40 88 -54 26 -13 44 -27 39 -30 -10 -6 -178 73 -293 138 l-65 37 150 -146
c141 -137 153 -146 205 -158 30 -6 73 -11 95 -9 40 2 42 1 120 -95 44 -54 96
-116 116 -139 20 -22 40 -53 46 -69 5 -16 16 -30 25 -32 16 -2 138 -73 138
-80 0 -2 -28 8 -62 21 -54 21 -207 71 -245 81 -6 1 -51 68 -100 148 -48 80
-91 146 -94 146 -4 0 -47 -387 -50 -450 0 -8 -7 -1 -15 15 l-15 30 6 -35 c3
-19 9 -55 12 -79 l6 -43 -135 91 c-74 50 -145 103 -159 117 -22 24 -23 27 -8
52 8 15 26 45 38 67 l23 40 -56 135 c-49 118 -56 143 -56 202 0 37 4 78 10 92
5 14 6 25 2 24 -4 -1 -19 2 -34 6 -28 8 -36 20 -19 30 5 3 12 18 16 33 3 15
10 30 13 33 4 3 36 62 70 133 60 120 65 126 80 109 10 -10 16 -16 15 -14 -1 3
3 14 9 26 7 11 11 24 10 29 -1 4 3 7 9 7 8 0 8 5 -1 15 -7 8 -10 27 -7 42 3
16 7 37 9 48 2 16 26 39 47 44 2 1 1 -14 -3 -31z m884 -155 c-9 -15 -10 -12
-6 16 3 18 7 45 8 60 1 14 3 7 5 -16 2 -24 -1 -51 -7 -60z m-1720 67 c0 -5 -2
-10 -4 -10 -3 0 -8 5 -11 10 -3 6 -1 10 4 10 6 0 11 -4 11 -10z m-7673 -26
c-3 -3 -12 -4 -19 -1 -8 3 -5 6 6 6 11 1 17 -2 13 -5z m110 -10 c-3 -3 -12 -4
-19 -1 -8 3 -5 6 6 6 11 1 17 -2 13 -5z m7550 -26 c-3 -7 -5 -2 -5 12 0 14 2
19 5 13 2 -7 2 -19 0 -25z m-7664 15 c-13 -2 -33 -2 -45 0 -13 2 -3 4 22 4 25
0 35 -2 23 -4z m214 1 c-3 -3 -12 -4 -19 -1 -8 3 -5 6 6 6 11 1 17 -2 13 -5z
m7522 -89 c0 -5 -11 10 -24 35 -13 25 -24 50 -24 55 0 6 11 -10 24 -35 13 -25
24 -49 24 -55z m-7631 78 c-10 -2 -28 -2 -40 0 -13 2 -5 4 17 4 22 1 32 -1 23
-4z m219 1 c-3 -3 -12 -4 -19 -1 -8 3 -5 6 6 6 11 1 17 -2 13 -5z m-119 -11
c-10 -2 -26 -2 -35 0 -10 3 -2 5 17 5 19 0 27 -2 18 -5z m3222 -4 c-25 -4 -57
-10 -71 -13 -16 -3 -26 0 -26 7 0 8 24 12 71 13 65 1 67 1 26 -7z m-3112 -6
c-10 -2 -28 -2 -40 0 -13 2 -5 4 17 4 22 1 32 -1 23 -4z m2990 0 c-10 -2 -28
-2 -40 0 -13 2 -5 4 17 4 22 1 32 -1 23 -4z m-2890 -10 c-10 -2 -28 -2 -40 0
-13 2 -5 4 17 4 22 1 32 -1 23 -4z m100 -10 c-10 -2 -26 -2 -35 0 -10 3 -2 5
17 5 19 0 27 -2 18 -5z m105 -10 c-7 -2 -21 -2 -30 0 -10 3 -4 5 12 5 17 0 24
-2 18 -5z m105 -10 c-10 -2 -26 -2 -35 0 -10 3 -2 5 17 5 19 0 27 -2 18 -5z
m6949 -95 c-2 -13 -4 -5 -4 17 -1 22 1 32 4 23 2 -10 2 -28 0 -40z m158 -28
c16 16 32 30 36 30 23 0 121 -107 145 -158 39 -85 39 -102 -7 -213 l-41 -99
-27 20 c-15 10 -71 64 -124 120 l-97 101 14 32 c33 77 41 93 54 109 11 14 10
23 -12 67 -14 28 -26 54 -26 58 1 4 13 -16 28 -45 l28 -53 29 31z m-7877 23
c-10 -2 -26 -2 -35 0 -10 3 -2 5 17 5 19 0 27 -2 18 -5z m90 -10 c-10 -2 -26
-2 -35 0 -10 3 -2 5 17 5 19 0 27 -2 18 -5z m90 -10 c-10 -2 -26 -2 -35 0 -10
3 -2 5 17 5 19 0 27 -2 18 -5z m5272 -3 c-20 -13 -43 -13 -35 0 3 6 16 10 28
10 18 0 19 -2 7 -10z m100 -30 c-21 -7 -22 -8 -5 -10 11 -1 36 -2 55 -1 l35 1
-34 -15 c-21 -9 -46 -13 -63 -10 -24 6 -26 9 -18 26 6 11 20 19 33 18 21 -1
21 -1 -3 -9z m-1357 -47 c-7 -2 -21 -2 -30 0 -10 3 -4 5 12 5 17 0 24 -2 18
-5z m-526 -19 c-3 -3 -12 -4 -19 -1 -8 3 -5 6 6 6 11 1 17 -2 13 -5z m4621
-39 c-10 -9 -98 -55 -98 -51 0 10 85 64 93 59 5 -3 7 -6 5 -8z m-2933 -25 c-3
-5 -10 -10 -16 -10 -5 0 -9 5 -9 10 0 6 7 10 16 10 8 0 12 -4 9 -10z m80 -20
c3 -5 2 -10 -4 -10 -5 0 -13 5 -16 10 -3 6 -2 10 4 10 5 0 13 -4 16 -10z m55
-15 c8 -9 8 -15 2 -15 -18 0 -42 12 -42 21 0 14 26 10 40 -6z m2815 3 c14 -6
25 -15 25 -20 0 -7 -31 8 -59 29 -10 7 10 2 34 -9z m-6688 -4 c-3 -3 -12 -4
-19 -1 -8 3 -5 6 6 6 11 1 17 -2 13 -5z m3790 -10 c-3 -3 -12 -4 -19 -1 -8 3
-5 6 6 6 11 1 17 -2 13 -5z m3813 -24 c12 -16 19 -30 16 -30 -2 0 -14 14 -26
30 -12 17 -19 30 -16 30 2 0 14 -13 26 -30z m-4157 3 c-7 -2 -19 -2 -25 0 -7
3 -2 5 12 5 14 0 19 -2 13 -5z m362 -3 c-3 -5 -12 -7 -20 -3 -21 7 -19 13 6
13 11 0 18 -4 14 -10z m-168 -23 c3 -4 -5 -7 -20 -7 -14 0 -28 4 -31 8 -5 9
41 8 51 -1z m-244 -34 c-7 -2 -21 -2 -30 0 -10 3 -4 5 12 5 17 0 24 -2 18 -5z
m4268 -30 c13 -16 12 -17 -3 -4 -17 13 -22 21 -14 21 2 0 10 -8 17 -17z
m-5884 1 c-3 -3 -12 -4 -19 -1 -8 3 -5 6 6 6 11 1 17 -2 13 -5z m868 -4 c-3
-5 -18 -10 -33 -9 -24 0 -25 1 -7 9 28 12 47 12 40 0z m-958 -66 c-3 -3 -12
-4 -19 -1 -8 3 -5 6 6 6 11 1 17 -2 13 -5z m844 -1 c-11 -5 -11 -7 0 -14 10
-6 6 -9 -13 -9 -27 0 -43 12 -31 24 3 3 18 6 32 5 14 0 20 -3 12 -6z m-267
-111 c2 -4 -3 -9 -12 -10 -49 -7 -65 -6 -69 6 -5 14 72 18 81 4z m-1336 -79
c-28 -7 -21 -23 10 -24 22 -1 23 -2 5 -6 -12 -2 -32 1 -45 8 -22 12 -22 12 -3
20 11 4 27 7 35 7 10 0 9 -2 -2 -5z m-108 -39 c0 -12 -43 -44 -59 -45 -102 -8
-179 3 -93 13 20 3 46 8 57 12 16 6 17 6 5 -3 -8 -6 -10 -11 -5 -11 6 0 18 9
28 20 15 18 67 29 67 14z m40 -4 c-8 -5 -19 -10 -25 -10 -5 0 -3 5 5 10 8 5
20 10 25 10 6 0 3 -5 -5 -10z m370 0 c0 -5 -7 -10 -16 -10 -8 0 -12 5 -9 10 3
6 10 10 16 10 5 0 9 -4 9 -10z m680 -15 c0 -17 -2 -18 -24 -9 -23 9 -20 24 4
24 11 0 20 -7 20 -15z m2007 -10 c0 -8 -4 -12 -9 -9 -5 3 -6 10 -3 15 9 13 12
11 12 -6z m4183 -10 c0 -14 -4 -25 -10 -25 -5 0 -10 11 -10 25 0 14 5 25 10
25 6 0 10 -11 10 -25z m-4139 -73 c-7 -2 -18 1 -23 6 -8 8 -4 9 13 5 13 -4 18
-8 10 -11z m-1624 2 c-3 -3 -12 -4 -19 -1 -8 3 -5 6 6 6 11 1 17 -2 13 -5z
m-1327 -42 c0 -5 -13 -7 -30 -4 -16 2 -30 6 -30 8 0 2 14 4 30 4 17 0 30 -4
30 -8z m7915 -37 c11 -9 2 -7 -20 6 -22 12 -44 26 -50 32 -16 15 48 -20 70
-38z m-7098 29 c-3 -3 -12 -4 -19 -1 -8 3 -5 6 6 6 11 1 17 -2 13 -5z m-1947
-64 c-20 -13 -40 -13 -40 0 0 6 12 10 28 10 21 0 24 -2 12 -10z m855 -19 c-6
-5 -25 10 -25 20 0 5 6 4 14 -3 8 -7 12 -15 11 -17z m90 9 c-3 -5 1 -10 7 -13
7 -3 -4 -3 -26 -1 -53 4 -66 20 -16 21 22 0 38 -3 35 -7z m882 -85 c0 -8 -4
-15 -9 -15 -10 0 -11 14 -1 23 9 10 10 9 10 -8z m2437 9 c20 -8 20 -20 1 -28
-21 -8 -45 3 -45 20 0 15 18 18 44 8z m-2464 -8 c0 -11 -19 -15 -25 -6 -3 5 1
10 9 10 9 0 16 -2 16 -4z m1917 -42 c-3 -3 -12 -4 -19 -1 -8 3 -5 6 6 6 11 1
17 -2 13 -5z m-1450 -10 c-3 -3 -12 -4 -19 -1 -8 3 -5 6 6 6 11 1 17 -2 13 -5z
m93 2 c0 -2 -13 -6 -29 -8 -17 -2 -28 -1 -25 4 5 8 54 12 54 4z m1600 -6 c-20
-13 -53 -13 -45 0 3 6 18 10 33 10 21 0 24 -2 12 -10z m-1775 -19 c-2 -14 1
-18 11 -14 7 3 11 10 7 17 -4 7 -1 7 9 -1 8 -7 18 -9 23 -5 4 4 6 0 3 -8 -5
-18 -68 -27 -68 -10 0 6 -5 8 -11 5 -6 -4 -5 2 3 14 16 26 28 27 23 2z m-50 0
c8 -14 -5 -19 -75 -26 -48 -6 -62 -4 -54 4 5 6 29 13 53 15 23 2 45 7 48 10 9
9 21 7 28 -3z m5045 -79 c0 -7 7 -26 15 -42 14 -28 11 -90 -5 -90 -7 0 -90
198 -90 215 0 5 18 -9 40 -30 22 -21 40 -45 40 -53z m-4893 72 c-3 -3 -12 -4
-19 -1 -8 3 -5 6 6 6 11 1 17 -2 13 -5z m1433 -4 c0 -5 -7 -10 -16 -10 -8 0
-12 5 -9 10 3 6 10 10 16 10 5 0 9 -4 9 -10z m-180 -10 c0 -5 -11 -10 -25 -10
-14 0 -25 5 -25 10 0 6 11 10 25 10 14 0 25 -4 25 -10z m120 0 c12 -8 9 -10
-12 -10 -15 0 -30 5 -33 10 -8 13 25 13 45 0z m-180 -15 c0 -8 -5 -15 -11 -15
-6 0 -17 7 -25 15 -14 13 -13 15 10 15 16 0 26 -6 26 -15z m-47 -12 c-7 -2
-19 -2 -25 0 -7 3 -2 5 12 5 14 0 19 -2 13 -5z m437 -3 c0 -5 -7 -10 -16 -10
-8 0 -12 5 -9 10 3 6 10 10 16 10 5 0 9 -4 9 -10z m-327 -7 c-7 -2 -19 -2 -25
0 -7 3 -2 5 12 5 14 0 19 -2 13 -5z m77 -9 c0 -2 -9 -4 -21 -4 -11 0 -18 4
-14 10 5 8 35 3 35 -6z m-1430 -14 c0 -5 -4 -10 -10 -10 -5 0 -10 5 -10 10 0
6 5 10 10 10 6 0 10 -4 10 -10z m60 0 c0 -5 -7 -10 -15 -10 -8 0 -15 5 -15 10
0 6 7 10 15 10 8 0 15 -4 15 -10z m1495 1 c-3 -5 3 -11 12 -13 10 -2 -6 -5
-34 -5 -60 -2 -72 14 -15 20 20 2 38 4 40 5 2 1 1 -2 -3 -7z m-1692 -48 c-7
-2 -19 -2 -25 0 -7 3 -2 5 12 5 14 0 19 -2 13 -5z m1727 -8 c-10 -13 -9 -15 9
-15 15 0 20 4 16 13 -4 6 -1 5 7 -4 7 -9 19 -14 27 -11 8 3 11 0 7 -7 -4 -6
-1 -11 8 -11 9 0 16 6 16 14 0 10 9 13 28 11 15 -2 35 -4 45 -4 10 -1 15 -5
12 -11 -3 -5 3 -10 14 -10 12 0 21 5 21 11 0 8 5 8 15 -1 8 -7 24 -10 36 -7
16 4 18 3 9 -8 -7 -8 -9 -18 -6 -23 7 -12 -30 -7 -68 7 -16 7 -48 11 -70 10
-23 -1 -51 1 -63 5 -13 4 -23 5 -23 1 0 -3 10 -10 23 -15 21 -8 20 -9 -7 -9
-16 -1 -26 2 -23 6 4 3 -5 12 -19 20 -34 17 -34 17 -35 -9 -1 -19 -2 -20 -6
-5 -4 15 -11 17 -31 13 -18 -4 -22 -3 -14 2 11 7 9 11 -8 15 -26 7 -18 27 10
27 13 0 17 -5 14 -15 -9 -23 23 -18 36 5 6 11 16 20 22 20 7 0 6 -5 -2 -15z
m-5200 -5 c-20 -13 -53 -13 -45 0 3 6 18 10 33 10 21 0 24 -2 12 -10z m3303
-1 c-8 -8 -16 -8 -30 0 -16 9 -14 10 12 11 21 0 26 -3 18 -11z m2370 4 c-7 -2
-19 -2 -25 0 -7 3 -2 5 12 5 14 0 19 -2 13 -5z m-628 -41 c11 -2 25 -8 31 -13
6 -5 23 -10 37 -11 14 -1 23 -6 20 -11 -4 -7 46 1 56 9 1 1 14 -2 28 -7 14 -5
51 -12 82 -14 72 -7 113 -15 127 -26 6 -5 27 -9 45 -8 64 3 184 -10 243 -25
32 -9 62 -14 66 -11 4 3 8 -6 8 -18 0 -28 -6 -29 -130 -22 -41 3 -68 1 -68 -5
0 -6 14 -11 30 -12 17 -1 44 -2 61 -3 16 -1 35 -7 40 -12 7 -7 -9 -7 -48 -1
-32 5 -67 7 -79 4 -13 -4 -31 2 -45 13 l-24 19 37 7 c21 4 35 11 32 16 -7 12
3 11 27 -1 11 -6 19 -7 19 -2 0 14 -42 23 -56 11 -8 -7 -13 -6 -16 3 -5 14
-92 18 -119 5 -10 -5 -22 -3 -30 5 -8 7 -18 13 -24 13 -39 1 -156 19 -194 30
-25 7 -62 15 -81 19 -35 5 -35 5 -10 -9 14 -8 35 -14 47 -15 12 0 24 -4 27 -9
4 -5 24 -12 46 -16 22 -4 37 -11 34 -17 -7 -12 -134 0 -151 14 -7 6 -19 8 -26
5 -8 -3 -44 0 -81 7 -67 13 -95 25 -60 27 12 0 4 7 -21 18 -22 10 -42 17 -45
16 -3 -2 -5 7 -5 20 0 18 3 21 13 12 10 -8 23 -7 48 2 19 7 43 9 54 6 13 -4
20 -2 21 7 0 9 2 9 7 -2 4 -8 16 -17 27 -18z m1445 -12 c0 -5 -12 -10 -27 -10
-22 0 -25 2 -13 10 20 13 40 13 40 0z m-1095 -20 c3 -5 -1 -10 -9 -10 -9 0
-16 5 -16 10 0 6 4 10 9 10 6 0 13 -4 16 -10z m948 -13 c6 -8 10 -9 13 -1 5
11 79 4 102 -10 19 -11 14 -26 -8 -26 -13 0 -18 -5 -14 -15 5 -12 -2 -15 -30
-15 -20 0 -36 -4 -36 -10 0 -5 7 -10 16 -10 8 0 13 -4 10 -9 -9 -15 -55 0 -61
20 -4 11 -10 17 -15 14 -5 -3 -11 -1 -15 5 -3 5 -17 10 -31 10 -13 0 -24 5
-24 10 0 6 -7 10 -15 10 -19 0 -8 28 13 32 40 9 87 7 95 -5z m-820 -11 c4 -10
1 -13 -9 -9 -15 6 -19 23 -5 23 5 0 11 -7 14 -14z m194 -1 c5 -4 0 -5 -9 -2
-9 3 -18 1 -20 -5 -3 -8 -11 -7 -27 1 -12 7 -29 10 -37 7 -8 -3 -12 -2 -9 4 7
11 91 7 102 -5z m49 -3 c-10 -2 -22 0 -28 6 -6 6 0 7 19 4 21 -5 23 -7 9 -10z
m-289 2 c-3 -3 -12 -4 -19 -1 -8 3 -5 6 6 6 11 1 17 -2 13 -5z m530 -10 c-3
-3 -12 -4 -19 -1 -8 3 -5 6 6 6 11 1 17 -2 13 -5z m-2310 -20 c-3 -3 -12 -4
-19 -1 -8 3 -5 6 6 6 11 1 17 -2 13 -5z m2249 -23 c89 0 96 -1 91 -23 -6 -19
-5 -19 18 2 19 18 28 20 38 12 8 -7 16 -9 19 -7 7 7 59 -16 54 -24 -7 -10
-129 -4 -160 8 -16 7 -36 9 -43 7 -8 -3 -11 -1 -8 4 3 6 1 10 -4 10 -6 0 -11
-6 -12 -12 0 -10 -2 -10 -6 0 -2 6 -19 12 -36 13 -18 0 -26 3 -19 6 6 2 9 9 6
15 -4 6 1 6 14 -1 11 -6 32 -10 48 -10z m-2723 2 c-7 -2 -21 -2 -30 0 -10 3
-4 5 12 5 17 0 24 -2 18 -5z m2257 -25 c0 -4 -5 -8 -11 -8 -5 0 -7 -4 -4 -10
5 -8 -63 15 -73 25 -2 2 17 3 42 3 25 -1 46 -5 46 -10z m335 2 c-3 -5 -11 -10
-16 -10 -6 0 -7 5 -4 10 3 6 11 10 16 10 6 0 7 -4 4 -10z m513 4 c-10 -9 -97
-14 -102 -6 -2 4 21 9 52 10 31 1 53 0 50 -4z m-2581 -30 c-3 -3 -12 -4 -19
-1 -8 3 -5 6 6 6 11 1 17 -2 13 -5z m2260 -10 c2 -7 -11 -13 -32 -16 -19 -2
-35 0 -35 4 0 4 12 9 28 9 l27 1 -30 8 -30 8 34 -1 c19 -1 36 -7 38 -13z
m-2162 -3 c34 -7 35 -9 10 -9 -16 0 -43 4 -60 8 -42 11 -1 11 50 1z m2045 -11
c8 -5 12 -11 10 -14 -3 -2 -14 2 -24 10 -22 15 -10 19 14 4z m-1925 -9 l40 -9
-35 0 c-19 0 -46 4 -60 8 -20 6 -21 8 -5 8 11 1 38 -3 60 -7z m1810 -1 c3 -5
1 -10 -4 -10 -6 0 -11 5 -11 10 0 6 2 10 4 10 3 0 8 -4 11 -10z m-850 -10 c-3
-5 -11 -10 -16 -10 -6 0 -7 5 -4 10 3 6 11 10 16 10 6 0 7 -4 4 -10z m-872 -7
c-7 -2 -19 -2 -25 0 -7 3 -2 5 12 5 14 0 19 -2 13 -5z m2517 -19 c0 -2 -9 -4
-20 -4 -11 0 -20 4 -20 9 0 5 9 7 20 4 11 -3 20 -7 20 -9z m-2725 -4 c4 -6 -5
-10 -20 -10 -15 0 -24 4 -20 10 3 6 12 10 20 10 8 0 17 -4 20 -10z m2062 -26
c-3 -3 -12 -4 -19 -1 -8 3 -5 6 6 6 11 1 17 -2 13 -5z m1354 -12 c-7 -2 -18 1
-23 6 -8 8 -4 9 13 5 13 -4 18 -8 10 -11z m-532 -8 c2 -2 -10 -4 -27 -4 -18 0
-32 5 -32 10 0 9 47 4 59 -6z m-209 -4 c0 -5 -9 -10 -19 -10 -11 0 -23 5 -26
10 -4 6 5 10 19 10 14 0 26 -4 26 -10z m-545 -19 c10 -17 -9 -20 -30 -5 -18
14 -18 14 2 14 12 0 24 -4 28 -9z m-80 -11 c3 -5 -1 -10 -9 -10 -9 0 -16 5
-16 10 0 6 4 10 9 10 6 0 13 -4 16 -10z m590 -10 c0 -10 -12 -16 -35 -18 -24
-2 -31 0 -21 7 11 7 10 11 -5 20 -16 9 -12 11 21 9 28 -2 40 -8 40 -18z m145
10 c0 -5 -8 -10 -17 -10 -15 0 -16 2 -3 10 19 12 20 12 20 0z m183 3 c-7 -2
-21 -2 -30 0 -10 3 -4 5 12 5 17 0 24 -2 18 -5z m317 -13 c0 -5 -2 -10 -4 -10
-3 0 -8 5 -11 10 -3 6 -1 10 4 10 6 0 11 -4 11 -10z m-2357 -7 c-7 -2 -21 -2
-30 0 -10 3 -4 5 12 5 17 0 24 -2 18 -5z m1934 1 c-3 -3 -12 -4 -19 -1 -8 3
-5 6 6 6 11 1 17 -2 13 -5z m-1874 -11 c-7 -2 -21 -2 -30 0 -10 3 -4 5 12 5
17 0 24 -2 18 -5z m1917 -3 c0 -5 -10 -10 -22 -10 -19 0 -20 2 -8 10 19 13 30
13 30 0z m427 4 c-3 -3 -12 -4 -19 -1 -8 3 -5 6 6 6 11 1 17 -2 13 -5z m-2284
-11 c-7 -2 -21 -2 -30 0 -10 3 -4 5 12 5 17 0 24 -2 18 -5z m60 -10 c-7 -2
-21 -2 -30 0 -10 3 -4 5 12 5 17 0 24 -2 18 -5z m900 0 c-7 -2 -19 -2 -25 0
-7 3 -2 5 12 5 14 0 19 -2 13 -5z m481 -1 c3 -5 -1 -9 -9 -9 -8 0 -12 4 -9 9
3 4 7 8 9 8 2 0 6 -4 9 -8z m179 1 c-7 -2 -21 -2 -30 0 -10 3 -4 5 12 5 17 0
24 -2 18 -5z m-1506 -9 c-3 -3 -12 -4 -19 -1 -8 3 -5 6 6 6 11 1 17 -2 13 -5z
m1386 -11 c-7 -2 -19 -2 -25 0 -7 3 -2 5 12 5 14 0 19 -2 13 -5z m394 1 c-3
-3 -12 -4 -19 -1 -8 3 -5 6 6 6 11 1 17 -2 13 -5z"/>
<path d="M8613 4425 c-21 -25 -38 -51 -38 -57 0 -26 24 -15 70 32 41 42 47 52
35 60 -23 15 -26 13 -67 -35z"/>
<path d="M8373 4303 c20 -2 54 -2 75 0 20 2 3 4 -38 4 -41 0 -58 -2 -37 -4z"/>
<path d="M8130 4290 c-15 -5 15 -6 70 -3 52 3 97 7 99 9 9 8 -145 2 -169 -6z"/>
<path d="M8500 4286 c0 -2 8 -10 18 -17 15 -13 16 -12 3 4 -13 16 -21 21 -21
13z"/>
<path d="M8445 3020 c-3 -5 1 -10 10 -10 9 0 13 5 10 10 -3 6 -8 10 -10 10 -2
0 -7 -4 -10 -10z"/>
<path d="M2948 4673 c7 -3 16 -2 19 1 4 3 -2 6 -13 5 -11 0 -14 -3 -6 -6z"/>
<path d="M2665 4627 c-98 -11 -174 -22 -167 -25 14 -4 404 37 411 44 8 7 -60
2 -244 -19z"/>
<path d="M2728 4603 c7 -3 16 -2 19 1 4 3 -2 6 -13 5 -11 0 -14 -3 -6 -6z"/>
<path d="M2528 4553 c6 -2 18 -2 25 0 6 3 1 5 -13 5 -14 0 -19 -2 -12 -5z"/>
<path d="M2098 4423 c7 -3 16 -2 19 1 4 3 -2 6 -13 5 -11 0 -14 -3 -6 -6z"/>
<path d="M2058 4413 c7 -3 16 -2 19 1 4 3 -2 6 -13 5 -11 0 -14 -3 -6 -6z"/>
<path d="M2018 4403 c7 -3 16 -2 19 1 4 3 -2 6 -13 5 -11 0 -14 -3 -6 -6z"/>
<path d="M1978 4393 c7 -3 16 -2 19 1 4 3 -2 6 -13 5 -11 0 -14 -3 -6 -6z"/>
<path d="M1758 4383 c6 -2 18 -2 25 0 6 3 1 5 -13 5 -14 0 -19 -2 -12 -5z"/>
<path d="M1938 4383 c7 -3 16 -2 19 1 4 3 -2 6 -13 5 -11 0 -14 -3 -6 -6z"/>
<path d="M1898 4373 c7 -3 16 -2 19 1 4 3 -2 6 -13 5 -11 0 -14 -3 -6 -6z"/>
<path d="M1858 4363 c7 -3 16 -2 19 1 4 3 -2 6 -13 5 -11 0 -14 -3 -6 -6z"/>
<path d="M1818 4353 c7 -3 16 -2 19 1 4 3 -2 6 -13 5 -11 0 -14 -3 -6 -6z"/>
<path d="M1778 4343 c7 -3 16 -2 19 1 4 3 -2 6 -13 5 -11 0 -14 -3 -6 -6z"/>
<path d="M1738 4333 c7 -3 16 -2 19 1 4 3 -2 6 -13 5 -11 0 -14 -3 -6 -6z"/>
<path d="M590 3690 c-13 -8 -12 -10 3 -10 9 0 17 5 17 10 0 12 -1 12 -20 0z"/>
<path d="M5368 3163 c7 -3 16 -2 19 1 4 3 -2 6 -13 5 -11 0 -14 -3 -6 -6z"/>
<path d="M7980 2105 c-19 -52 -37 -90 -41 -84 -4 7 -5 -3 -4 -22 2 -19 4 -37
4 -42 1 -4 12 -12 26 -17 27 -10 81 15 143 68 l32 27 -55 80 c-31 44 -59 81
-63 83 -5 1 -23 -40 -42 -93z"/>
<path d="M7932 2165 c0 -16 2 -22 5 -12 2 9 2 23 0 30 -3 6 -5 -1 -5 -18z"/>
<path d="M7921 2064 c0 -11 3 -14 6 -6 3 7 2 16 -1 19 -3 4 -6 -2 -5 -13z"/>
<path d="M8695 2302 c-20 -11 -30 -23 -27 -34 4 -21 22 -24 22 -4 0 8 8 17 18
21 14 5 15 4 5 -6 -20 -20 -15 -31 6 -17 11 7 17 16 15 20 -3 4 -1 8 4 8 5 0
9 7 9 15 0 19 -14 18 -52 -3z"/>
<path d="M9760 1232 c0 -5 7 -9 15 -9 8 0 12 4 9 9 -3 4 -9 8 -15 8 -5 0 -9
-4 -9 -8z"/>
<path d="M4018 2133 c7 -3 16 -2 19 1 4 3 -2 6 -13 5 -11 0 -14 -3 -6 -6z"/>
<path d="M8626 1875 c-9 -26 -7 -32 5 -12 6 10 9 21 6 23 -2 3 -7 -2 -11 -11z"/>
<path d="M9200 1728 c0 -60 15 -54 23 10 4 32 2 42 -9 42 -10 0 -14 -14 -14
-52z"/>
<path d="M9202 1640 c0 -14 2 -19 5 -12 2 6 2 18 0 25 -3 6 -5 1 -5 -13z"/>
<path d="M5388 423 c7 -3 16 -2 19 1 4 3 -2 6 -13 5 -11 0 -14 -3 -6 -6z"/>
<path d="M5488 423 c7 -3 16 -2 19 1 4 3 -2 6 -13 5 -11 0 -14 -3 -6 -6z"/>
<path d="M5588 403 c6 -2 18 -2 25 0 6 3 1 5 -13 5 -14 0 -19 -2 -12 -5z"/>
<path d="M5110 396 c0 -2 7 -7 16 -10 8 -3 12 -2 9 4 -6 10 -25 14 -25 6z"/>
<path d="M5915 280 c-3 -5 1 -10 10 -10 9 0 13 5 10 10 -3 6 -8 10 -10 10 -2
0 -7 -4 -10 -10z"/>
<path d="M3408 5249 c-22 -12 -24 -41 -3 -33 12 5 15 -2 15 -30 0 -33 2 -36
29 -36 17 0 33 5 37 11 4 8 9 7 15 -2 7 -11 9 -10 9 4 0 16 -16 21 -57 20 -7
-1 -13 8 -13 18 0 22 11 24 27 8 9 -9 21 -8 47 5 40 19 45 25 19 24 -10 0 -26
3 -35 7 -13 5 -18 2 -19 -11 0 -16 -2 -15 -9 4 -10 23 -34 28 -62 11z"/>
<path d="M6910 5253 c8 -4 20 -13 27 -22 11 -14 12 -13 13 7 0 18 -5 22 -27
21 -17 0 -22 -3 -13 -6z"/>
<path d="M7139 5243 c-1 -10 0 -119 0 -243 1 -235 3 -244 46 -234 22 5 441 48
620 64 231 20 420 42 428 49 4 4 -23 4 -60 0 -38 -4 -140 -15 -228 -24 -88 -9
-203 -20 -255 -26 -124 -12 -498 -49 -502 -49 -2 0 -4 48 -6 108 -1 59 -4 116
-7 127 -2 11 -4 71 -4 133 -1 92 -4 112 -16 112 -8 0 -15 -8 -16 -17z"/>
<path d="M7712 5070 c-1 -107 2 -201 6 -207 7 -11 5 336 -2 382 -2 11 -4 -68
-4 -175z"/>
<path d="M7768 5103 c4 -237 6 -262 17 -236 15 33 7 393 -8 393 -9 0 -11 -40
-9 -157z"/>
<path d="M3183 5234 c-32 -14 -48 -42 -17 -30 8 3 13 2 10 -3 -9 -13 35 -29
93 -34 40 -3 58 -10 75 -29 11 -13 17 -19 13 -12 -4 7 -3 15 3 19 19 11 11 53
-11 60 -13 5 -19 13 -16 24 3 14 -5 17 -57 18 -35 1 -75 -4 -93 -13z"/>
<path d="M7914 5241 c7 -11 46 -35 46 -28 0 3 -12 12 -26 22 -15 9 -23 12 -20
6z"/>
<path d="M3570 5225 c-10 -12 -8 -13 11 -10 32 6 49 25 22 25 -11 0 -26 -7
-33 -15z"/>
<path d="M7970 5205 c0 -3 33 -26 73 -52 39 -25 91 -61 114 -80 23 -19 48 -33
54 -31 11 4 -35 37 -183 132 -32 20 -58 34 -58 31z"/>
<path d="M6818 5174 c-5 -4 -8 -16 -8 -28 0 -14 3 -17 11 -9 6 6 9 19 7 28 -1
9 -6 13 -10 9z"/>
<path d="M8080 5166 c0 -3 34 -28 75 -56 41 -28 75 -48 75 -46 0 3 -34 28 -75
56 -41 28 -75 48 -75 46z"/>
<path d="M3120 5064 c0 -9 5 -14 12 -12 18 6 21 28 4 28 -9 0 -16 -7 -16 -16z"/>
<path d="M6858 5073 c6 -2 18 -2 25 0 6 3 1 5 -13 5 -14 0 -19 -2 -12 -5z"/>
<path d="M6778 5063 c7 -3 16 -2 19 1 4 3 -2 6 -13 5 -11 0 -14 -3 -6 -6z"/>
<path d="M6859 5016 c-5 -5 -163 -20 -191 -18 -10 0 -20 -3 -23 -8 -3 -5 -13
-6 -21 -3 -15 5 -33 -11 -34 -29 0 -11 34 -10 46 2 5 5 62 14 127 21 86 9 117
16 117 25 0 13 -12 19 -21 10z"/>
<path d="M3310 4964 c0 -11 -5 -25 -12 -32 -9 -9 -9 -12 0 -12 18 0 36 40 23
53 -8 8 -11 5 -11 -9z"/>
<path d="M8212 4940 c0 -14 2 -19 5 -12 2 6 2 18 0 25 -3 6 -5 1 -5 -13z"/>
<path d="M3400 4939 c0 -5 9 -9 20 -9 11 0 20 2 20 4 0 2 -9 6 -20 9 -11 3
-20 1 -20 -4z"/>
<path d="M3120 4929 c0 -5 5 -7 10 -4 6 3 10 8 10 11 0 2 -4 4 -10 4 -5 0 -10
-5 -10 -11z"/>
<path d="M4043 4933 c9 -2 25 -2 35 0 9 3 1 5 -18 5 -19 0 -27 -2 -17 -5z"/>
<path d="M3963 4923 c9 -2 25 -2 35 0 9 3 1 5 -18 5 -19 0 -27 -2 -17 -5z"/>
<path d="M6803 4923 c-18 -7 -16 -23 2 -23 8 0 15 7 15 15 0 8 -1 15 -2 14 -2
0 -9 -3 -15 -6z"/>
<path d="M3883 4913 c9 -2 25 -2 35 0 9 3 1 5 -18 5 -19 0 -27 -2 -17 -5z"/>
<path d="M3269 4893 c-13 -16 -12 -17 4 -4 16 13 21 21 13 21 -2 0 -10 -8 -17
-17z"/>
<path d="M3803 4903 c9 -2 25 -2 35 0 9 3 1 5 -18 5 -19 0 -27 -2 -17 -5z"/>
<path d="M3718 4893 c12 -2 30 -2 40 0 9 3 -1 5 -23 4 -22 0 -30 -2 -17 -4z"/>
<path d="M3898 4893 c7 -3 16 -2 19 1 4 3 -2 6 -13 5 -11 0 -14 -3 -6 -6z"/>
<path d="M3638 4883 c12 -2 30 -2 40 0 9 3 -1 5 -23 4 -22 0 -30 -2 -17 -4z"/>
<path d="M3818 4883 c12 -2 30 -2 40 0 9 3 -1 5 -23 4 -22 0 -30 -2 -17 -4z"/>
<path d="M3553 4873 c9 -2 25 -2 35 0 9 3 1 5 -18 5 -19 0 -27 -2 -17 -5z"/>
<path d="M3738 4873 c12 -2 30 -2 40 0 9 3 -1 5 -23 4 -22 0 -30 -2 -17 -4z"/>
<path d="M6815 4869 c-38 -5 -106 -13 -150 -17 l-80 -7 -3 -42 c-3 -42 -2 -43
28 -43 34 0 206 17 258 26 31 5 32 7 32 49 0 25 -3 44 -7 44 -5 -1 -39 -6 -78
-10z m-45 -29 c0 -5 -4 -10 -10 -10 -5 0 -10 5 -10 10 0 6 5 10 10 10 6 0 10
-4 10 -10z"/>
<path d="M3473 4863 c9 -2 25 -2 35 0 9 3 1 5 -18 5 -19 0 -27 -2 -17 -5z"/>
<path d="M3658 4863 c12 -2 30 -2 40 0 9 3 -1 5 -23 4 -22 0 -30 -2 -17 -4z"/>
<path d="M3393 4853 c9 -2 25 -2 35 0 9 3 1 5 -18 5 -19 0 -27 -2 -17 -5z"/>
<path d="M3578 4853 c12 -2 30 -2 40 0 9 3 -1 5 -23 4 -22 0 -30 -2 -17 -4z"/>
<path d="M3313 4843 c9 -2 25 -2 35 0 9 3 1 5 -18 5 -19 0 -27 -2 -17 -5z"/>
<path d="M3498 4843 c12 -2 30 -2 40 0 9 3 -1 5 -23 4 -22 0 -30 -2 -17 -4z"/>
<path d="M3688 4843 c6 -2 18 -2 25 0 6 3 1 5 -13 5 -14 0 -19 -2 -12 -5z"/>
<path d="M3233 4833 c9 -2 25 -2 35 0 9 3 1 5 -18 5 -19 0 -27 -2 -17 -5z"/>
<path d="M3408 4833 c12 -2 30 -2 40 0 9 3 -1 5 -23 4 -22 0 -30 -2 -17 -4z"/>
<path d="M3618 4833 c12 -2 30 -2 40 0 9 3 -1 5 -23 4 -22 0 -30 -2 -17 -4z"/>
<path d="M3328 4823 c12 -2 30 -2 40 0 9 3 -1 5 -23 4 -22 0 -30 -2 -17 -4z"/>
<path d="M3470 4820 c-41 -6 -42 -7 -10 -8 19 0 58 3 85 8 47 7 48 7 10 7 -22
0 -60 -3 -85 -7z"/>
<path d="M3248 4813 c12 -2 30 -2 40 0 9 3 -1 5 -23 4 -22 0 -30 -2 -17 -4z"/>
<path d="M3168 4803 c12 -2 30 -2 40 0 9 3 -1 5 -23 4 -22 0 -30 -2 -17 -4z"/>
<path d="M3368 4803 c12 -2 30 -2 40 0 9 3 -1 5 -23 4 -22 0 -30 -2 -17 -4z"/>
<path d="M3083 4793 c9 -2 25 -2 35 0 9 3 1 5 -18 5 -19 0 -27 -2 -17 -5z"/>
<path d="M3220 4790 c-41 -6 -42 -7 -10 -8 19 0 58 3 85 8 47 7 48 7 10 7 -22
0 -60 -3 -85 -7z"/>
<path d="M3498 4793 c6 -2 18 -2 25 0 6 3 1 5 -13 5 -14 0 -19 -2 -12 -5z"/>
<path d="M3118 4773 c12 -2 30 -2 40 0 9 3 -1 5 -23 4 -22 0 -30 -2 -17 -4z"/>
<path d="M3028 4763 c12 -2 32 -2 45 0 12 2 2 4 -23 4 -25 0 -35 -2 -22 -4z"/>
<path d="M2948 4753 c12 -2 30 -2 40 0 9 3 -1 5 -23 4 -22 0 -30 -2 -17 -4z"/>
<path d="M2868 4743 c12 -2 30 -2 40 0 9 3 -1 5 -23 4 -22 0 -30 -2 -17 -4z"/>
<path d="M640 1683 c-20 -7 -60 -44 -60 -55 0 -5 4 -7 9 -3 5 3 12 1 16 -5 4
-6 26 1 56 16 64 34 73 49 24 40 -25 -5 -35 -4 -30 3 7 12 7 12 -15 4z"/>
<path d="M552 1599 c-7 -10 -8 -19 -3 -19 13 0 33 28 23 33 -4 3 -13 -3 -20
-14z"/>
<path d="M2518 1513 c7 -3 16 -2 19 1 4 3 -2 6 -13 5 -11 0 -14 -3 -6 -6z"/>
<path d="M3518 1473 c6 -2 18 -2 25 0 6 3 1 5 -13 5 -14 0 -19 -2 -12 -5z"/>
<path d="M3125 1432 l-50 -27 37 -3 c20 -2 46 1 56 7 11 6 58 8 113 5 129 -7
118 2 -27 20 -17 2 -40 9 -52 15 -25 13 -16 15 -77 -17z"/>
<path d="M3378 1443 c6 -2 18 -2 25 0 6 3 1 5 -13 5 -14 0 -19 -2 -12 -5z"/>
<path d="M2938 1423 c7 -3 16 -2 19 1 4 3 -2 6 -13 5 -11 0 -14 -3 -6 -6z"/>
<path d="M3300 1358 c0 -4 6 -8 14 -8 8 0 21 -3 30 -6 9 -3 16 -2 16 4 0 5
-13 12 -30 14 -16 3 -30 1 -30 -4z"/>
<path d="M5510 1330 c-13 -8 -12 -10 3 -10 9 0 17 5 17 10 0 12 -1 12 -20 0z"/>
<path d="M65 1291 c-22 -5 -26 -8 -14 -13 9 -3 22 -2 30 3 8 5 25 8 39 8 l25
0 -22 -11 c-13 -6 -23 -15 -23 -19 0 -4 -16 -6 -36 -3 -19 2 -43 0 -52 -6 -14
-8 -12 -9 11 -10 29 0 34 -19 7 -28 -9 -3 -10 0 -4 9 6 12 5 11 -10 0 -38 -31
-4 -85 42 -66 15 6 15 8 -2 14 -16 6 -11 10 25 19 44 11 44 11 20 -7 l-24 -18
29 2 c16 1 45 3 65 3 19 1 43 8 53 15 15 11 11 12 -26 9 l-43 -3 30 14 c17 8
38 17 47 20 9 3 15 14 14 24 -2 14 7 21 43 29 l46 12 -65 1 c-36 1 -90 3 -120
5 -30 2 -68 0 -85 -3z"/>
<path d="M4790 1276 c0 -10 28 -13 41 -5 10 6 7 9 -13 9 -16 0 -28 -2 -28 -4z"/>
<path d="M5230 1266 c0 -8 61 -12 66 -4 3 4 -11 8 -30 8 -20 0 -36 -2 -36 -4z"/>
<path d="M4605 1221 c8 -14 108 -24 157 -15 39 7 40 8 18 15 -37 11 -182 11
-175 0z"/>
<path d="M258 1193 c7 -3 16 -2 19 1 4 3 -2 6 -13 5 -11 0 -14 -3 -6 -6z"/>
<path d="M4244 1109 c-3 -5 9 -9 25 -9 17 0 31 2 31 4 0 8 -51 13 -56 5z"/>
<path d="M4664 1009 c-3 -5 6 -9 20 -9 32 0 41 15 10 16 -13 1 -27 -2 -30 -7z"/>
<path d="M3878 803 c7 -3 16 -2 19 1 4 3 -2 6 -13 5 -11 0 -14 -3 -6 -6z"/>
<path d="M808 783 c7 -3 16 -2 19 1 4 3 -2 6 -13 5 -11 0 -14 -3 -6 -6z"/>
<path d="M2870 783 c8 -3 22 -11 30 -17 13 -10 13 -9 1 7 -7 9 -21 17 -30 16
-13 0 -14 -1 -1 -6z"/>
<path d="M2758 766 c-10 -7 -18 -16 -18 -19 0 -3 8 -8 18 -10 9 -3 -5 -2 -33
0 -38 4 -47 3 -39 -6 13 -14 144 -23 144 -11 0 5 24 8 54 7 30 -2 53 0 50 4
-2 4 6 10 18 12 13 3 -2 4 -32 2 -77 -4 -138 5 -142 21 -2 10 -6 10 -20 0z"/>
<path d="M1118 733 c7 -3 16 -2 19 1 4 3 -2 6 -13 5 -11 0 -14 -3 -6 -6z"/>
<path d="M8430 724 l-25 -14 27 0 c15 0 29 4 33 9 9 16 -9 18 -35 5z"/>
<path d="M3030 706 c0 -2 7 -7 16 -10 8 -3 12 -2 9 4 -6 10 -25 14 -25 6z"/>
<path d="M3690 695 c7 -9 19 -14 26 -11 7 3 15 0 17 -7 3 -9 8 -8 18 2 8 8 9
11 2 7 -6 -3 -13 -2 -15 2 -1 5 -16 12 -32 16 -26 6 -28 6 -16 -9z"/>
<path d="M2958 688 c5 -5 19 -4 33 1 23 10 22 10 -8 8 -18 0 -29 -5 -25 -9z"/>
<path d="M8363 693 c9 -2 25 -2 35 0 9 3 1 5 -18 5 -19 0 -27 -2 -17 -5z"/>
<path d="M3556 682 c-3 -4 4 -9 15 -9 23 -2 25 3 4 10 -8 4 -16 3 -19 -1z"/>
<path d="M3285 670 c-3 -5 -1 -10 4 -10 6 0 11 5 11 10 0 6 -2 10 -4 10 -3 0
-8 -4 -11 -10z"/>
<path d="M3236 646 c6 -14 72 -32 82 -22 3 3 -4 6 -15 6 -12 0 -23 7 -27 15
-3 8 -14 15 -25 15 -13 0 -19 -5 -15 -14z"/>
<path d="M3688 633 c7 -3 16 -2 19 1 4 3 -2 6 -13 5 -11 0 -14 -3 -6 -6z"/>
<path d="M8255 615 l-30 -13 26 -1 c15 -1 29 6 33 14 3 8 4 15 3 15 -1 -1 -15
-7 -32 -15z"/>
<path d="M4869 578 c-7 -26 -7 -48 1 -43 5 3 10 13 10 21 0 9 5 12 12 8 7 -4
8 -3 4 4 -6 10 -25 17 -27 10z"/>
<path d="M4428 563 c7 -3 16 -2 19 1 4 3 -2 6 -13 5 -11 0 -14 -3 -6 -6z"/>
<path d="M4480 560 c0 -5 5 -10 10 -10 6 0 10 5 10 10 0 6 -4 10 -10 10 -5 0
-10 -4 -10 -10z"/>
<path d="M6245 550 c-3 -5 1 -10 9 -10 9 0 16 5 16 10 0 6 -4 10 -9 10 -6 0
-13 -4 -16 -10z"/>
<path d="M4766 525 c-3 -8 -1 -15 4 -15 6 0 10 7 10 15 0 8 -2 15 -4 15 -2 0
-6 -7 -10 -15z"/>
<path d="M4667 475 c10 -7 21 -11 25 -9 5 3 8 0 8 -5 0 -6 7 -11 15 -11 8 0
15 5 15 11 0 5 5 7 11 3 7 -4 10 -1 7 6 -2 8 -23 14 -51 15 -41 2 -45 1 -30
-10z"/>
<path d="M4782 461 c-11 -7 -11 -9 1 -14 16 -6 27 0 27 15 0 10 -11 10 -28 -1z"/>
<path d="M4825 460 c3 -5 8 -10 11 -10 2 0 4 5 4 10 0 6 -5 10 -11 10 -5 0 -7
-4 -4 -10z"/>
<path d="M4706 432 c-3 -5 1 -9 9 -9 8 0 12 4 9 9 -3 4 -7 8 -9 8 -2 0 -6 -4
-9 -8z"/>
<path d="M4775 410 c-2 -3 5 -6 15 -7 11 -1 22 2 24 5 3 4 -4 8 -15 8 -11 0
-22 -3 -24 -6z"/>
<path d="M4902 378 c6 -16 47 -23 60 -10 6 6 0 8 -16 5 -15 -3 -26 -1 -26 6 0
6 -5 11 -11 11 -6 0 -9 -6 -7 -12z"/>
<path d="M4752 353 c-22 -3 -30 -8 -25 -16 4 -7 0 -6 -10 2 -11 8 -17 9 -17 2
0 -17 -55 -41 -95 -41 -20 0 -34 -4 -31 -9 3 -4 -6 -6 -21 -3 -16 3 -24 1 -20
-5 6 -10 -78 -40 -96 -35 -5 1 -7 -3 -5 -10 3 -9 24 -13 67 -11 63 1 76 6 76
26 0 7 16 12 35 13 71 1 87 4 87 18 0 8 -6 12 -15 8 -10 -3 -13 -1 -8 7 4 6
16 9 26 6 10 -3 21 -2 24 3 3 6 23 13 43 18 21 4 41 8 46 9 4 2 13 3 20 4 6 2
3 6 -8 11 -21 9 -21 9 -73 3z"/>
<path d="M4698 243 c7 -3 16 -2 19 1 4 3 -2 6 -13 5 -11 0 -14 -3 -6 -6z"/>
<path d="M4395 230 c3 -5 11 -10 16 -10 6 0 7 5 4 10 -3 6 -11 10 -16 10 -6 0
-7 -4 -4 -10z"/>
<path d="M4515 160 c17 -4 39 -8 50 -8 16 0 15 2 -5 8 -14 4 -36 8 -50 8 -22
0 -22 -1 5 -8z"/>
<path d="M4618 143 c6 -2 18 -2 25 0 6 3 1 5 -13 5 -14 0 -19 -2 -12 -5z"/>
<path d="M4673 133 c9 -2 25 -2 35 0 9 3 1 5 -18 5 -19 0 -27 -2 -17 -5z"/>
<path d="M4183 115 c0 -8 4 -12 9 -9 4 3 8 9 8 15 0 5 -4 9 -8 9 -5 0 -9 -7
-9 -15z"/>
</g>
</svg>
